/* XPM */
static char *_ca42c2a0c30481fd585ebc472675739ydFhTI7Z2AlqsdQG[] = {
/* columns rows colors chars-per-pixel */
"64 64 3 1 ",
"  c #7C4536",
". c #B1624D",
"X c #A2867D",
/* pixels */
"............XXXX............................XXXX................",
"............XXXX............................XXXX................",
"............XXXX............................XXXX................",
"............XXXX............................XXXX................",
"........    XXXX        ................    XXXX    ............",
"........    XXXX        ................    XXXX    ............",
"........    XXXX        ................    XXXX    ............",
"........    XXXX        ................    XXXX    ............",
"            XXXX                            XXXX                ",
"            XXXX                            XXXX                ",
"            XXXX                            XXXX                ",
"            XXXX                            XXXX                ",
"XXXXXXXXXXXXXXXXXXXXXXXXXXXXXXXXXXXXXXXXXXXXXXXXXXXXXXXXXXXXXXXX",
"XXXXXXXXXXXXXXXXXXXXXXXXXXXXXXXXXXXXXXXXXXXXXXXXXXXXXXXXXXXXXXXX",
"XXXXXXXXXXXXXXXXXXXXXXXXXXXXXXXXXXXXXXXXXXXXXXXXXXXXXXXXXXXXXXXX",
"XXXXXXXXXXXXXXXXXXXXXXXXXXXXXXXXXXXXXXXXXXXXXXXXXXXXXXXXXXXXXXXX",
"............................XXXX............................XXXX",
"............................XXXX............................XXXX",
"............................XXXX............................XXXX",
"............................XXXX............................XXXX",
"    ................        XXXX                            XXXX",
"    ................        XXXX                            XXXX",
"    ................        XXXX                            XXXX",
"    ................        XXXX                            XXXX",
"        ....                XXXX                            XXXX",
"        ....                XXXX                            XXXX",
"        ....                XXXX                            XXXX",
"        ....                XXXX                            XXXX",
"XXXXXXXXXXXXXXXXXXXXXXXXXXXXXXXXXXXXXXXXXXXXXXXXXXXXXXXXXXXXXXXX",
"XXXXXXXXXXXXXXXXXXXXXXXXXXXXXXXXXXXXXXXXXXXXXXXXXXXXXXXXXXXXXXXX",
"XXXXXXXXXXXXXXXXXXXXXXXXXXXXXXXXXXXXXXXXXXXXXXXXXXXXXXXXXXXXXXXX",
"XXXXXXXXXXXXXXXXXXXXXXXXXXXXXXXXXXXXXXXXXXXXXXXXXXXXXXXXXXXXXXXX",
"............XXXX............................XXXX................",
"............XXXX............................XXXX................",
"............XXXX............................XXXX................",
"............XXXX............................XXXX................",
"........    XXXX    ....................    XXXX    ............",
"........    XXXX    ....................    XXXX    ............",
"........    XXXX    ....................    XXXX    ............",
"........    XXXX    ....................    XXXX    ............",
"            XXXX                            XXXX                ",
"            XXXX                            XXXX                ",
"            XXXX                            XXXX                ",
"            XXXX                            XXXX                ",
"XXXXXXXXXXXXXXXXXXXXXXXXXXXXXXXXXXXXXXXXXXXXXXXXXXXXXXXXXXXXXXXX",
"XXXXXXXXXXXXXXXXXXXXXXXXXXXXXXXXXXXXXXXXXXXXXXXXXXXXXXXXXXXXXXXX",
"XXXXXXXXXXXXXXXXXXXXXXXXXXXXXXXXXXXXXXXXXXXXXXXXXXXXXXXXXXXXXXXX",
"XXXXXXXXXXXXXXXXXXXXXXXXXXXXXXXXXXXXXXXXXXXXXXXXXXXXXXXXXXXXXXXX",
"............................XXXX............................XXXX",
"............................XXXX............................XXXX",
"............................XXXX............................XXXX",
"............................XXXX............................XXXX",
"    ....................    XXXX    ....................    XXXX",
"    ....................    XXXX    ....................    XXXX",
"    ....................    XXXX    ....................    XXXX",
"    ....................    XXXX    ....................    XXXX",
"                            XXXX                            XXXX",
"                            XXXX                            XXXX",
"                            XXXX                            XXXX",
"                            XXXX                            XXXX",
"XXXXXXXXXXXXXXXXXXXXXXXXXXXXXXXXXXXXXXXXXXXXXXXXXXXXXXXXXXXXXXXX",
"XXXXXXXXXXXXXXXXXXXXXXXXXXXXXXXXXXXXXXXXXXXXXXXXXXXXXXXXXXXXXXXX",
"XXXXXXXXXXXXXXXXXXXXXXXXXXXXXXXXXXXXXXXXXXXXXXXXXXXXXXXXXXXXXXXX",
"XXXXXXXXXXXXXXXXXXXXXXXXXXXXXXXXXXXXXXXXXXXXXXXXXXXXXXXXXXXXXXXX"
};
