/* XPM */
static char *e632e10416ed41d08c7856d9be141876YGrULUsG4Uwqe5b8[] = {
/* columns rows colors chars-per-pixel */
"64 64 86 1 ",
"  c #160E0F",
". c #160F10",
"X c #1B0F11",
"o c #171011",
"O c #1D1013",
"+ c #200F13",
"@ c #211114",
"# c #281417",
"$ c #221619",
"% c #251B1C",
"& c #2A1E1D",
"* c #2B201F",
"= c #2A1D20",
"- c #2D2222",
"; c #322425",
": c #362D2C",
"> c #392E2D",
", c #37302E",
"< c #39312F",
"1 c #3A3130",
"2 c #614F43",
"3 c #655347",
"4 c #65544B",
"5 c #69574C",
"6 c #6D594D",
"7 c #715C4E",
"8 c #6D5B51",
"9 c #725E51",
"0 c #766153",
"q c #7A6456",
"w c #756358",
"e c #7A6558",
"r c #7C6658",
"t c #7C6758",
"y c #7D6759",
"u c #7C675A",
"i c #7D6858",
"p c #7E685A",
"a c #7E6A5D",
"s c #7F6A5D",
"d c #806A5A",
"f c #816A5A",
"g c #816B5A",
"h c #826C5B",
"j c #806A5C",
"k c #836C5C",
"l c #836D5D",
"z c #846D5D",
"x c #856E5D",
"c c #866F5F",
"v c #86705F",
"b c #836F62",
"n c #856F60",
"m c #877160",
"M c #857264",
"N c #867265",
"B c #867365",
"V c #877466",
"C c #887261",
"Z c #897464",
"A c #887467",
"S c #897567",
"D c #897668",
"F c #8A7668",
"G c #8B7769",
"H c #8B776A",
"J c #8C776A",
"K c #8B786A",
"L c #8D786A",
"P c #8D796A",
"I c #8C786B",
"U c #8E796B",
"Y c #8D796C",
"T c #8E7A6C",
"R c #8F7B6C",
"E c #8E7B6D",
"W c #8F7B6D",
"Q c #907B6D",
"! c #907C6D",
"~ c #917C6E",
"^ c #917D6F",
"/ c #927D6F",
"( c #917E6F",
") c #927E70",
"_ c #948071",
"` c #978375",
/* pixels */
"0000qqe0000sjqqq0998iebjttjjtetslstslnlslsase00009tq9qtteqqtqt06",
"gi9790q060qsetq00064STG(TGGGDGGT)TT(TKKTYGVwmq997et09qq9qtq0qt08",
"CvUGVTKTSBUTUU(UTG84CTTKAGGGTUGT)))TGATTYYG9llKGSKUGGGTBGTJJGJ85",
"zlUTUT(GGSU)G((UUU88m()VBBT)TTTTTTTKGT)(TTV8llGKSUUJJTTAATJBGT88",
"lvGBUTTGBGG(TUGBT)88b)`GTTTT)TKTTKGTTT)T(UJ0zzB((TGGTGGSAAVGGG88",
"zlSSGUTTGGUGGTGJTT88qelqeeeeejlqsj00selsgzl0hzST((GGUTUUGGHTGG98",
"vCJSVGTT~)GUGTT(TK84:;::::::>>>:::::::1,::>>tgBT(GUTUT(TTTHT)G88",
"zCGJUUTT~(TTUTTTTG84:1<111>,111,<11:1111<<<<iCJBGSTTTG(~TT)TTH44",
"lmTRVSUKTTTTTTTTTT85&@XOOO++OOOO&O@X@@OOoXo&ivSSUKUUU!(UTTTIGG44",
"gmSSSURUGBU)BBT~TG88;:::>:1>1,,$;::>::::>::&hlK(KUKGUU(JGTIGGJ88",
"igKUURUUBGGTSBUUTG88->:::>>:,1:=;:>>:::::>:&hlBTKUKUUGUQVT)GHTww",
"vlK(RTSSJJTTUGBTGG44=:::::1::>:$;>1>1>:>>>:%llmRKRUKSGFQVT))HT88",
"zzT)USSU)U(TUGGTTJ84=:>>::1>>>:=;:>>>>>>>>:%hlSTRRRSSSFFSU)(TT88",
"zmT)GUUUUUUSBJUT(G54=>>>1:1>>>>=-::::>>>>>:%ggSUVURKQSQJJ((UBG88",
"zq986666766666668954=>>>>>>>>>:=-:::>>>>>::-l9575096696657969644",
"q5535666765556896954=++OOOOOXXX$%XXXXX@XXX.&03556669666666656544",
"i776900069000696&@@@O@O XXXX+XX++@+@++@+X+OO#@@*q977997009757070",
"hq070q09qe000084;:>:::>::1>>:>:>:::>>>:>:>>>:::*i97709700t070975",
"ihUU(SG(DTHV~U54;::>:::>>>::>::>>>::>>:>::::<::*timSGVGBJJUSUG53",
"vzU(SU~SG^HG~S34;::>>:<::>:>:::1>::>>::>:::<>::*gtVUGBGU~USUTB88",
"CCRUSCTUH)TGGB84-::>>><:>>:>>::>>>>>>:>:::<:>>:&zgVGUTUT)YYYGB85",
"zCKTUSSUHTTGYT88&:::>>>:>>::>::::>>:>>>:::>><::*zzvUVKGUTYRYGG55",
"zvU(UTUUHTTTDB88-::::::>1>>>:>:>>>>>>>>11::>::>*ggVTTKGTTGTRTG88",
"hlSGSTT(GTHTVV45%oOO@OO@XOOOOoXX@@@@@++++X@@XOX%zhSUTK((YG)RRG48",
"hzUUKR(RKSVVGG84$XXXOOO@  XXXXX@% XXX+@+@@  XXX#tgK)GU(~YGTTGM44",
"lvKTUUURTSGKGG84-:::>>:::::::::%-:::::>>>>::::>&gnUVSGSUYGTGTD88",
"miVTRVSUTKUKGB84&:::::::::::>>>=;:::>>>>>>>::::%glmVUGUTGGGGTG88",
"mqmKKUSUUGKmTT84&:>:>:<:::>>>>>%;:::>>>>>>><>::%hgbb(UUUGTTGHT98",
"liSSUSSUVKBGTG84*>>>>::>>>>>>>>=;:>>:>:>:::>>::&gzUGAU~UGTGGVH88",
"llSSKSUG(TKUTU54&:>::>><>>::1>>&;:><:::>::::>::&gSUVAASJGTTGBV84",
"lq66756796609638;:::::::>:>:>>1&;::::::>::::>>>-ge55366558995658",
"i555566633566555*@#@OOOOO OOXX+$&OXX.XXX@@XX#@#&9536676456666855",
"iq0q75700776679qie95=X+XXXXXXX.. XXX@+@+ XX&t79779770q77900qq707",
"vz00007090990q0et995;:>:>>::>::::::::>>::::-gt0790770q997q007798",
"qhU((~SG~UUU)(TG(A44;>:11>:>>>>>:::>>>>>:::*tzUCBSUSGGJGJJSSGB85",
"hzSU(SKGT~~UT(TGJA44;>::>::::1>>:>>>>>>>>::*zz~UUSUUUGT~(~USGG84",
"zgBJUKSUGUUU(GBGJA34;:>1>::::>>:>:<:>>:>>>:*zzQJUKT)(GT~TUTTGS48",
"zhMmUSVKSAAUTVmT~J44=:::::::>>>:>>:::>:::>>*kzA(UKUTTGBGUSUTTB88",
"zsBGKGSZSSSUUTUTTG88;:::::::>>::><::::>:>:>&qiAJ(SKUTSSTGGGTTG88",
"glGUKSUUU(!SG((KGG44=OX..XO.XX.X@OOXO @@X++&giA~(USBGGSUUSGTTG88",
"CCS~~U(~URTUKTUUTT44%X++XX ...X@%X++++++++X&qtJ((UVSUUUUGGGTTB48",
"ClA(USUJTSKUT_UKTG44=>>>::;::>:%;:::>>:>:::&ggS(TKSKR_~UGGGTUG44",
"zl~(GBJT(UK((UJT)G54&:>>:::::>:=;>::>>>>:::&zCSUKKUKUR(SGRTGGG48",
"zgTTGS~(TKKRUSGUTI88&::>>1>>11>=;>::>>>>:::&zCGGGURU(RSKT)TTKT44",
"lgGSGTT)UUSSUSSUT~44%:::>>>>:>:=;:::>>>::::&gzBBBUTTTUSSUUU~GV45",
"llU(UmGTUTUUUUGJTU44&::>>>1>1::%;:>::>:::::&gzBzbGU(UGVVGJBTKG48",
"lt706236956090955684-:::>11:>::%;>>::::>>:>*zt663699766667556558",
"q5563335633665755664%OOX++XXXXX$&++@X@@OXX@&q7763536665556566548",
"q779777777009905&@$#++++X   XXO#OOXXXXO+XXXX#@X*0667997q79079676",
"gq000006709q0085;::>:>>>::;:>>>><<::>>>>>>::<>:*iq9700q009009795",
"ggSSGTGBmBUTTJ88;:::>>::::,:>><>>:;:>><>>>>:>>:*zv~JGGUGUJ(UTB88",
"zlSJGTBGGmT((B85;>:::::>>:><>>>>><:::>>:>>:>>>:*hvUZGKGGUUUGUG88",
"gin)TBBGJGT)UB54;:::::>>><>>>>>::>>><>>>>::::>:*gzJSGJGGYBBT)~54",
"zgBUTTTUTI))GB44;::>:1>>:::>>>::>>:>>:>>>>>>:>:*ihBGUGGGGTGT)G88",
"CCJGGTJTGJJTGA44->>::>>>1>::::::>>::>>>>>::>:::*igbGSGKTT)GYTT88",
"nCJGTUTTGTGTGG84&oXXXXO+@+X@OOOO#@@O@OOOOXXOXXX%hhSGGGT)TGbB)T54",
"zSGSTTTT)TGGBB54%XXX+@XXXX++@Xo%&@++++X+XXXXoOX#gvKKmU)UGGVA)I84",
"hzG(TKTU(GUJTJ88=:>>::>:>>1:1>>O;>>:>::>:::::::%ihUUKAQUVG~TTG48",
"ggSU~TG()GTJTT44-:>::::>>>:::>:%;>>::>>>:,:,>>:&ihSUTUSSGG)))T44",
"hiBGGTUUTT()TA54->>>:::1>>::>::=;:>::>:>::,:>>>&gzSGU(JSGG)GTI54",
"hzSGBGSUU(TTGb44-::>::::>>>>><>%;:::><>>::::>>:&giSU~~S(TSJTIG84",
"gzSVGGUUB(UGGG84=::>>>::1>>>>:>%;:::::>>:::::::%tzKUSJUS(AGAJG88",
"z056777656968984;:::::>1>>>::>>%;>:<::::<:::<::&h067556565567688",
"i556556655666854=OoOO.XXX+XXOO@$%@@OOo  O@XoX@o*q569666566566854"
};
