/* XPM */
static char *_5b3802b41c6463fc7182cbfeafd76baXq5iaPyXFOp3mhyr[] = {
/* columns rows colors chars-per-pixel */
"64 64 150 2 ",
"   c #454444",
".  c #4D4746",
"X  c #4C4847",
"o  c #4D4C4C",
"O  c #544645",
"+  c #534C4B",
"@  c #5B4F4D",
"#  c #57504F",
"$  c #59504F",
"%  c #504F50",
"&  c #555353",
"*  c #5B5454",
"=  c #5B5857",
"-  c #575658",
";  c #595758",
":  c #5C5A5A",
">  c #624C4A",
",  c #65514F",
"<  c #635552",
"1  c #6B5653",
"2  c #655856",
"3  c #6D5A55",
"4  c #635D5C",
"5  c #6B5D5B",
"6  c #725956",
"7  c #785C57",
"8  c #735D59",
"9  c #7B5E5A",
"0  c #6A605F",
"q  c #76615D",
"w  c #7B645E",
"e  c #656262",
"r  c #6C6463",
"t  c #6C6A6A",
"y  c #746563",
"u  c #7C6562",
"i  c #766865",
"p  c #7B6864",
"a  c #746B6B",
"s  c #7B6D6B",
"d  c #7E706E",
"f  c #7D7271",
"g  c #805F5B",
"h  c #81615D",
"j  c #836662",
"k  c #8A6662",
"l  c #836B65",
"z  c #8B6A65",
"x  c #836C69",
"c  c #8C6E69",
"v  c #926C66",
"b  c #936E69",
"n  c #84726D",
"m  c #8B736C",
"M  c #93736D",
"N  c #9A746E",
"B  c #847573",
"V  c #8B7773",
"C  c #857876",
"Z  c #897976",
"A  c #867978",
"S  c #8C7C7A",
"D  c #947570",
"F  c #9C7671",
"G  c #957B73",
"H  c #9B7C74",
"J  c #907F7D",
"K  c #A07771",
"L  c #A37B75",
"P  c #A67F78",
"I  c #9C8177",
"U  c #92817E",
"Y  c #9D8279",
"T  c #A1867C",
"R  c #AD847D",
"E  c #A5897F",
"W  c #B0877F",
"Q  c #958482",
"!  c #998784",
"~  c #978886",
"^  c #9A8986",
"/  c #9D8B89",
"(  c #AF8780",
")  c #A68A81",
"_  c #AA8E84",
"`  c #A18E8C",
"'  c #B08780",
"]  c #B48C85",
"[  c #B88E87",
"{  c #B78F88",
"}  c #B88F88",
"|  c #AD9187",
" . c #A3918F",
".. c #AF9288",
"X. c #B2968B",
"o. c #BA928B",
"O. c #B5998E",
"+. c #A69391",
"@. c #A99694",
"#. c #AB9996",
"$. c #AE9C99",
"%. c #AF9C9A",
"&. c #BF9790",
"*. c #B69A90",
"=. c #B79A90",
"-. c #B79B90",
";. c #B89B91",
":. c #BF9890",
">. c #B89C92",
",. c #B99D92",
"<. c #B99D93",
"1. c #BA9E93",
"2. c #BA9F94",
"3. c #BB9F95",
"4. c #B09E9B",
"5. c #B19E9C",
"6. c #B19F9D",
"7. c #B29F9D",
"8. c #BCA096",
"9. c #BCA196",
"0. c #B3A09D",
"q. c #B4A19F",
"w. c #B4A29F",
"e. c #BDA298",
"r. c #BEA399",
"t. c #BFA49A",
"y. c #B4A2A0",
"u. c #B5A3A1",
"i. c #B6A3A0",
"p. c #B6A4A2",
"a. c #B7A5A2",
"s. c #B7A5A3",
"d. c #B8A6A3",
"f. c #B8A6A4",
"g. c #B9A7A4",
"h. c #BAA8A5",
"j. c #B9A8A6",
"k. c #BBA9A6",
"l. c #BBA9A7",
"z. c #BBAAA7",
"x. c #BCAAA7",
"c. c #BCAAA8",
"v. c #BCABA8",
"b. c #BDACA9",
"n. c #C09891",
"m. c #C0A59A",
"M. c #C1A59B",
"N. c #C1A69C",
"B. c #C3A89D",
"V. c #C0AEAC",
/* pixels */
"y.p.0.y.p.p.0.S T 1.O.O.X.| _ | ..*.*.X.*.2.2.O.O.O.O.O.3.m.8.O.. 5.4.@.0.d.7.4.0.y.v.v.f.h.h.0.y.f.y.p.h.f.p.p.p.B r y.h.f.p.p.",
"y.0.@.+./ S a y 1.1.1.*.X.| | | O.O.X.O.2.e.e.8.*.O.*.O.2.m.2.) y 5.4.0.y.0.5.4.0.p.f.f.f.y.0.y.y.y.0.w.h.v.f.h.c.f.r e C ~ @.%.",
"y r l K K M 0 Y 8.1.1.2.X.| | | X.O.X.1.8.e.m.M.3.*.O.O.2.8.O.Y ^ 4.7.y.y.4.7.7.0.y.f.v.f.y.y.f.w.%.@.#.y.v.v.h.c.h.2 L R N y e ",
"] ] } o.o.} , *.1.2.*.*.| _ | | O.O.O.2.e.m.m.m.e.*.X.2.3.3.O.n B 7.7.a.d.y.7.y.f.f.f.f.d.5.0.h.d.%.@.@.5.f.h.f.d. .P o.o.o.o.] ",
"] ] o.[ o.o.h H 1.1.;.O.X.O.O.X.X.O.O.2.e.2.8.3.;.O.*.3.e.3.E * : S 0.y.f.f.y.y.d.p.w.%.%.#.4.4.0.%.@.@.y.y.p.5.^ & o.] ] o.o.] ",
"' ] o.o.o.o.] O ) O.O.X.*.1.2.X.O.| ..X.X.*.1.;.;.2.1.e.e.T 3 K ] b B c.a.y.y.f.d.%.U 4 4 r t t d / $.#.%.%./ * 1 F R R ] ] ] o.",
"} ] [ [ o.o.] L < O.*.O.O.O.*.*.O.O._ X.2.;.*.*.*.*.*.*.G 7 ' ] o.o.k s +.5.f.y.#.r & U %.%.%.0.#.a r a r 4 u R R R ] ] o.o.o.] ",
"o.o.[ } ] R R ' j w _ | X.*.2.2.2.2.X.O.*.;.1.O.O.X.X.j 9 ] ] ] o.o.o.L q e f Z s Q %.5.0.%.0.0.y.U 2 L R R ( ( R W ] ] ] o.] o.",
"n.o.o.} R T ' ( R 9 * H 1.1.1.*.O.1.;.X.O.*.O.O.X.X.G 7 ( ( ( ' } o.o.} [ 9 / 0.y.5.0.h.0.p.0.p.0.y H ] ] ] R R ] W ] ] o.] ] ] ",
"} o.o.} R R R R W ] ' g I *.*.*.O.O.X.O.*.X.O.*.O.| < R R ( ( ( ] ] } } [ b  .0.5.5.y.f.p.0.p.y.^ # M ] ] R ] ] ] ] ] o.o.] ] W ",
"] } o.} ' R R R ' } o.W   *.X...O.O.O.O.O.O.O.*.X.T 6 ] R R ( R R ] ] } ] K ` y.0.5.y.y.p.5.U 5 x Y 2 L ] ] R ] ] ] o.o.o.o.[ ' ",
"] } o.} ] ' ( ( ' } o.} 1 O.X.| ..O.O.O.O.O.2.1.E + K ] ] ( R R R ' o.o.o.R u d.h.p.0.y.#.0 H | O.O.| h T { ] ] o.o.o.n.o.o.o.] ",
"[ } o.[ [ ] { ] ] } } ] w G X._ | O.O.O.*.1.1.H 9 R ] ] ] ( R R ] { o.o.] ] < 5.p.h.0. .< _ X.O.1.O.O..., ] o.o.o.o.n.n.o.o.o.] ",
"] ' [ } ] ] { ] ] o.o.R ; 4 s ) | X.X.O.O._ p w W ' ] } { { ( ( ] o.o.o.] ] 9  .%.B 5 m X.O.O.O.O.O.O.O.u F o.o.o.o.o.o.o.o.o.] ",
"] ] ] ] ] ] } ] } ] b 8 | X.Y e V V d r 4 : c ' R ' } o.{ ( { [ o.o.o.o.o.' @ & m | *.*.X.X.>.e.8.O.O.O.G + L [ o.o.o.o.o.o.o.] ",
"] ] ] ] ' [ [ R F 8 l O.*.*.*.H - e e D ' ] } ' W ] o.o.[ [ [ o.o.o.o.&.o.M & ) X.X.*.8.>.>.8.8.e.O.O.O.X.H 2 F o.o.o.n.n.o.o.o.",
"] ] R N u 5 q p l G *.2.1.O.2.X.< 3 R o.n.o.} ] ] o.&.&.[ o.{ ] ] o.o.o.] + T O.X.X.2.e.O.O.1.e.8.O.O.O.O.O.| X R [ o.:.:.o.] o.",
"b 4 : : G O.*.O.X.O.2.2.O.O.X.| 1 ' ] o.o.o.] ] { o.o.o.{ ( { ( ] o.o.' 6 m X.*.*.2.m.2.O.O.O.e.r.1.X.O.O.X...p 1 ] o.o.o.[ ] [ ",
"y +.^ G ;.2.2.*.X.X.O.;.O.| | _ 8 o.] [ } o.] ] o.o.] ] ] { ( ( ' { ' 6 M | | | *.;.8.1.O.O.X.8.e.8.O.X.O.X.X.E - i R ] ] ] L * ",
"f.f.Q _ 2.;.3.*.X.X.X.*.O.X.| X.q ] ] [ o.] ] o.o.[ ( ] { ] [ ( ' ' h H ....| | *.*.2.1.*.O.X.*.1.8.O.O.-.O.X.) & a e e e i ! 5.",
"x.x.! I O.1.3.X.*.X.X.X.X.X.X.X.6 R R R ' ] o.o.o.{ { { o.[ [ { ] M M | X.X.| X.*.O.;.*.1.O.X.X.X.X.O.8.e.1.8._ x 4.%.#.0.0.0.v.",
"f.h./ w O.2.*.O.*.X._ _ _ X...O.j T ] ( ] o.o.o.[ { ( [ o.{ o.o.] > T X.*.*.O.O.O.O.;.2.8.*.X.X.O.2.1.8.m.e.8.) Q 4.4.4.5.%.0.d.",
"f.d.s T O.2.2.*.2.2.*.O...X.O.O.I h ] ] o.o.o.[ [ { { ] { { ] [ } N w 8.2.1.1.*.*.*.2.2.*.O.X.O.8.e.e.e.e.m.3.q y.f.w.0.4.4.p.%.",
"f.5.* *.X.*.3.3.2.2.O.X.| X.X.X.| @ P ] o.o.[ ' ( ( ] ] ] ] ] ] } { > O.1.;.*.O.O.;.2.2.2.1.X.O.e.m.*.V p s s 0  .p.0.p.w.d.d.0.",
"d.Q m 8.*.*.1.2.O.X.O.O.2.*.O.*.X.G + N ] } } o.] ] ( ' ] [ [ [ ] } K z *.O.X.O.O.O.2.8.m.8.O.| *.E # S @.@.@.#.Z r @.0.%.f.b.f.",
"5.+ | 2.8.2.*.X.O.O.*.*.*.;.2.2.1.1.| q N o.o.o.o.[ ] ] ] ] ] [ } ] T , O.X.X.X.O.*.8.r.8.*.X.| O.w = f.p.p.p.f.f./ 2 ^ y.f.h.f.",
"Q + *.2.e.;.X.X.;.2.O.2.2.e.n.2.2.2.2.T g } n.o.o.} [ ] } } } } } } F x O.X.X.O.X.X.1.8.1.X...X.| < Q h.y.0.5.0.y.%. .a e / y.0.",
"f e G O.O.X._ 1.2.*.2.2.2.3.m.M.e.1.1.) + } o.n.o.} o.o.o.o.} o.o.} M 0 Y | ..X.O.1.1.O.X.) m 3 y U w.p.h.p.y.5.%.#.#.%.S : r f ",
"y.+.= H O.X...2.*.X.E T Y _ 2.M.e.2.X.| < K o.o.o.o.o.[ o.o.o.n.o.R & : A C d i I O.1._ q 5  .%.%.p.p.h.h.5.5.5.4.4.#.%.y.y.y.d.",
"%.5.@.e a G Y ) G 5 ; s n t a _ 2.*.O.;._ < F l p c L [ o.[ } } W $ 0 #.0.p.0.@.e i n 4 Q 0.0.p.p.p.h.h.v.0.%.5.4.4.4.%.p.f.0.0.",
"%.%.y.%.4 e t t e c R o.o.] b 4 x ) _ O.T + v ] o.' v 5 F ' P z < B 0.%.5.0.p.d.%.& : 4.p.p.f.h.0.p.h.h.v.y.0.y.y.0.y.4.%.4.y.p.",
"%.y.p.p.J & e x ( ] ] } } o.o.} N q 4 5 F ] o.o.} } [ ] j & Z #.5.0.y.%.%.0.0.p.p.* +.h.h.f.v.p.y.y.h.h.f.y.0.0.p.f.f.y.w.%.0.f.",
"y.f.f.y.@.  N o.o.] ( ( o.o.&.:.o.W W W ] { } ] ] ] } ] R d 0.0.d.p.y.0.5.p.d.d.0.* p.h.h.h.h.0.p.y.h.v.f.p.y.p.y.h.v.b.h.c.x.f.",
"p.p.p.f.y.2 j :.o.o.o.o.] o.o.o.o.o.o.] { } o.} [ o.o.[ ] 3 0.%.0.d.h.0.p.p.d.y.Z / w.p.h.h.h.0.0.p.h.b.h.d.p.0.p.p.p.v.d.x.x.c.",
"y.p.h.h.h.S o ] o.o.o.] o.o.o.o.o.o.o.o.] { } ] { o.o.o.] z  .p.p.g.d.0.0.d.y.%.# 0.0.0.p.p.p.p.p.p.h.v.c.d.p.0.0.f.w.f.f.h.c.c.",
"p.p.v.b.c./ X L o.o.[ o.o.[ [ o.} } o.o.o.] ] } o.o.[ o.] P d h.d.w.5. ./ ` @.` 0 p.p.p.p.p.p.h.v.p.v.h.f.f.y.y.p.0.p.w.p.p.d.f.",
"p.y.f.f.%.& * ( o.o.] o.o.} [ o.{ { ] o.o.o.} } } o.o.o.R w - i Z i 5 p G _ E m d p.y.y.0.0.p.h.v.v.f.f.p.y.0.5.y.y.0.4.5.0.g.d.",
"y.0.0. .* & M ] ] [ ] o.o.] ] [ ] ] ] o.o.o.o.} o.:.:.] 8 2 E X.O.X.O.1.8.>.*.| B 0.0.0.0.%.%.0.f.h.h.f.v.y.5.5.0.y.y.%.5.5.d.d.",
"0.y./ % - M ] ] ] o.o.o.o.X.] [ ] ] ] ] o.o.o.} :.o.o.h # | O.>.*.O.1.2.e.2.*.Y U %.4.0.0.0.%.0.p.v.h.v.v.h.y.y.y.y.w.0.0.%.5.y.",
"5.Q & * L o.o.o.] O.o.o.o.o.] o.] ] W ] o.o.} o.o.o.F X T 1.>.>.1.2.8.e.2.*.O.H : #.%.0.p.y.0.0.h.v.f.h.h.v.f.p.y.p.f.y.0.5.%.5.",
"f e e t R ] o.o.] } o.o.[ [ [ [ ] ' ] ( ] { o.o.n.W O T 8.1.O.O.;.1.2.m.8.*.*.X.3 0 5.5.p.p.p.p.h.f.j.h.h.h.y.f.f.v.h.y.y.y.y.` ",
"t S a t e T o.o.o.] o.o.] ] ] ] ] ] ] ] ' o.o.o.o.h 3 8.8.1.8.O.O.;.;.2.3.*.O.O.X.x y 0.0.p.p.h.f.f.f.f.h.f.f.f.h.h.v.p.y.` a : ",
"p.f.5.~ e e F o.&.o.[ [ [ ' ] ] ' ] W ' ] o.o.{ } z T 8.r.8.O.8.1.1.;.O.O.X.X.O.X.| O ^ p.p.h.h.y.y.y.p.h.h.j.f.v.f.f.^ r ; 4 Q ",
"h.f.f.y.%.^ * M o.o.o.o.] ] ' ] ] ' ' ] ] o.o.} { N E >.1.O.1.O.;.8.3.*.O.*.X.O.X.X.c r p.h.h.p.0.4.0.f.y.f.h.h.h.p.S & * S %.5.",
"f.h.p.p.f.p./ o j ] o.[ ' ] ] ] ' ] W W ] { o.} ] N I | X.X.O.O.2.e.e.1.O.O.O.X.X.X._   0.b.h.h.4.0.%.%.y.y.f.h.p.%.: & / %.%.0.",
"0.p.f.p.p.0.y.~ ; r F ] ' W R ' ] ' ' W ] ] ] ' R q m ..| | O.1.8.e.8.1.O.O.X.X.X.X.X.3 %.h.h.p.0.%.%.%.4.y.y.y.p.@.o - %.%.%.%.",
"0.p.p.y.y.0.5.%./ : e a G W R R R R ' ] o.o.' K q : 0 E X.| X.8.m.m.8.O.X.O.X.X.X.X.X.G U 0.0.0.0.#.%.4.%.y.y.%.0.Q o d %.#.%.5.",
"p.p.0.0.%.0.5.y.5.@.a e e N W R R R W ] o.W b * w E V * G X.O.e.8.e.8.2.O.*.X.O...X...E - B / #.#.+.#.%.6.4.0.%.%.4 o  .%.%.%.%.",
"p.h.0.0.0.0.0.0.4.0.4.Z : t G L T P R P k * u Y X.O.1.X.q l 8.8.m.2.e.e.O.*.X._ | _ _ _ 3 L c i a C ~ @.@.+.+.` Q - 4 0.5.%.$.y.",
"h.p.y.0.p.p.y.0.0.0.y.p./ A C f a a a e n 3.3.;.-.;.1.;.X.M q 1.2.2.1.2.O.X._ X.| | X.| z ] ( ' L c y y i u j N L 2  .%.%.y.0.p.",
"p.0.0.p.h.0.p.p.y.0.w.0.0.0.y.%.$./ f * X.8.e.;.-._ X.X.| O.< I 2.;.O.X.O.X.X.X.*.*.*.Y P ] ' [ ] ] ] R W ' ] ] L A p.y.0.y.p.h.",
"p.0.%.p.p.p.p.p.0.p.0.4.y.y.0.4.#.@.@.* O.;.3.O.X.X.O._ X.;.T 3 2.2.O.O.O.X.| X.O.O.O._ v o.} o.] ] o.] ' W R b 2 p.h.d.y.0.d.p.",
"p.p.0.%.p.p.p.p.f.f.f.y.0.%.y.y.#.%.%.B ) X.2.2.3.O.O.X._ O.X.O 2.e.2.;.X.| _ X.O.O.O.O.H F o.] o.o.:.o.] F 3 s 0.c.h.d.y.p.p.f.",
"p.p.0.%.0.0.p.f.h.v.f.4.%.%.%.%.#.5.0.@.G *.2.8.3.1.;.X._ O.O.@ ) e.3.;.X.X.| X.*.O.O.*.X.h o.] ] o.o.( > r #.x.b.b.c.h.p.h.f.p.",
"p.p.p.p.p.p.h.p.f.y.0.%.#.$.#.%.%.5.0.s | 8.e.m.8.m.e.1.X.O.O.c < M.e.2.*.O.X.X.X.O.O.O.| 3 ] ] ] ] ] 6  .b.V.b.b.V.b.b.p.y.0.0.",
"p.0.p.h.h.h.v.h.h.p.y.0.%.%.%.%.%.5.Z l 1.1.r.m.m.m.M.m.X.X.O._ < G 3.2.1.*.O.O.O.O.O.O.E o 5 n c y r * @.b.b.c.b.b.h.h.h.p.h.y.",
"y.0.5.f.v.d.d.p.f.h.p.0.4.#.@.+. .U q O.1.*.r.B.m.r.M.r.O.O.O.X.) * r T ;.;.O.O.O.E m q / #.%.0.y.0.%.` B p.f.f.h.h.p.h.p.0.b.h.",
"0.p.y.y.d.d.p.p.p.p.y.#.d = y y 4 l X.1.1.*.8.M.r.8.M.8.2.e.2.*.X.* #.` y n s y 2 r ! y.y.5.%.%.0.0.%.#.< p.h.v.p.y.0.%.#.%.p.b.",
"y.0.p.h.h.h.f.d.p.%.Q 2 T ..O.O.X...| X.X.O.1.8.2.>.2.2.e.e.>.1.H * c.c.p.Q ! #.0.p.p.p.0.0.%.%.%.%.y.0.Z #.b.b.c.p.0.%.@.#.0.0.",
"y.p.h.h.v.h.h.0.0. .p X.>.1.*.1.1.*.O.X.| O.1.1.1.2.2.e.8.1.O.X.$ ! V.V.h.0.f.d.g.w.p.y.h.0.#.%.4.y.p.h.p.* %.h.b.p.0.#.#.#.%.%.",
"p.h.h.f.h.h.p.w.p.B | O.1.1.1.8.8.8.1.X._ O.*.O.*.2.e.e.8.1.X.O.X f.b.b.c.d.p.h.d.y.w.y.h.0.#.#.%.%.y.f.v.^ o @.v.v.0.%.$. .%.%.",
"f.h.p.p.y.y.0.y.5.2 O.1.1.1.O.1.2.1.O._ | X.O.*.2.2.8.8.*.1.1.1.$ v.b.b.b.0.0.p.d.d.d.d.h.f.4.#.%.%.y.f.h.f.U % / h.y.0.$.@.%.0.",
"p.0.4.0.0.p.p.p./ M X.O.1.1.*.O.*.*.X.| *.*.*.O.1.1.*.*.O.*.O.1.@ p.h.h.h.0.0.0.w.y.y.d.f.p.4.p.d.y.d.d.p.h.p.C % #.p.y.%.@.%.0.",
"%.0.0.y.p.p.h.0.2 O.X.O.1.1.1.O.X.X.X.X.*.*.O.X.*.X.X.X.X.X.X.X.. p.h.f.p.%.5.0.w.p.y.y.4.%.4.f.f.f.d.d.p.f.h.y.B = 0.p.%.@.%.0."
};
