/* XPM */
static char *eb01042822b34e5d92272b83b07d2d12N754htrkexx1pTAB[] = {
/* columns rows colors chars-per-pixel */
"64 64 212 2 ",
"   c #2F2924",
".  c #312E25",
"X  c #323726",
"o  c #3B352D",
"O  c #3B3B2D",
"+  c #3F3631",
"@  c #3E3C31",
"#  c #413731",
"$  c #443B35",
"%  c #483C36",
"&  c #463D39",
"*  c #493E3A",
"=  c #364D25",
"-  c #384E27",
";  c #3D422E",
":  c #374E28",
">  c #3B4D2B",
",  c #375126",
"<  c #3A5327",
"1  c #3C522B",
"2  c #3E5A2C",
"3  c #3F4532",
"4  c #3F4D31",
"5  c #3F5232",
"6  c #404D2F",
"7  c #41532F",
"8  c #425D2E",
"9  c #434434",
"0  c #484237",
"q  c #434B33",
"w  c #474639",
"e  c #4D423C",
"r  c #474C38",
"t  c #4C4C3B",
"y  c #51453E",
"u  c #504C3D",
"i  c #445433",
"p  c #495436",
"a  c #445C33",
"s  c #4A5E36",
"d  c #45543A",
"f  c #4C543B",
"g  c #46593B",
"h  c #4C5B3B",
"j  c #51553E",
"k  c #525C3F",
"l  c #44632E",
"z  c #466333",
"x  c #4A6434",
"c  c #476934",
"v  c #4C6C34",
"b  c #476539",
"n  c #4C643B",
"m  c #4D6C3A",
"M  c #506D36",
"N  c #52633D",
"B  c #526C3C",
"V  c #586F3E",
"C  c #4E7134",
"Z  c #4E723A",
"A  c #4F783B",
"S  c #517336",
"D  c #54743B",
"F  c #58743E",
"G  c #557A3C",
"H  c #597A3F",
"J  c #4E4341",
"K  c #4E4A42",
"L  c #534641",
"P  c #554A44",
"I  c #594C46",
"U  c #564B49",
"Y  c #5C4E49",
"T  c #4D5441",
"R  c #4C5B42",
"E  c #545443",
"W  c #5A5446",
"Q  c #545C43",
"!  c #5A5C45",
"~  c #5D524B",
"^  c #575948",
"/  c #5D5B49",
"(  c #5F5350",
")  c #62544D",
"_  c #625B4D",
"`  c #645651",
"'  c #6A5753",
"]  c #665953",
"[  c #6A5B55",
"{  c #6C5E59",
"}  c #715D58",
"|  c #4D6540",
" . c #4F6A42",
".. c #546344",
"X. c #5A6445",
"o. c #546B42",
"O. c #5B6C45",
"+. c #5C634A",
"@. c #576849",
"#. c #5C6B4A",
"$. c #557343",
"%. c #5B7444",
"&. c #567C42",
"*. c #5B7B44",
"=. c #577649",
"-. c #5C754A",
";. c #5D7C4A",
":. c #5F6151",
">. c #62634D",
",. c #636B4C",
"<. c #65684C",
"1. c #607546",
"2. c #617947",
"3. c #62724C",
"4. c #627C4C",
"5. c #656351",
"6. c #6B6355",
"7. c #656C51",
"8. c #6B6B54",
"9. c #6E615A",
"0. c #6E6A59",
"q. c #73635C",
"w. c #79665F",
"e. c #736B5D",
"r. c #7A6A5F",
"t. c #647351",
"y. c #6C7355",
"u. c #667C51",
"i. c #6A7B54",
"p. c #6F7259",
"a. c #6E7C59",
"s. c #727759",
"d. c #74735C",
"f. c #747B5D",
"g. c #756661",
"h. c #796761",
"j. c #766B61",
"k. c #7B6C65",
"l. c #7F6F68",
"z. c #777261",
"x. c #7B7264",
"c. c #777D61",
"v. c #7B7C64",
"b. c #7F7368",
"n. c #7F7A68",
"m. c #816D66",
"M. c #826E6A",
"N. c #827067",
"B. c #84736C",
"V. c #89736D",
"C. c #837C6C",
"Z. c #877670",
"A. c #887772",
"S. c #877C71",
"D. c #8A7A73",
"F. c #8E7D79",
"G. c #907E77",
"H. c #58803E",
"J. c #568141",
"K. c #5B8445",
"L. c #5D8A47",
"P. c #5D844A",
"I. c #5E8B49",
"U. c #63844D",
"Y. c #628C4C",
"T. c #64904D",
"R. c #648553",
"E. c #6A8354",
"W. c #658B53",
"Q. c #6A8C54",
"!. c #6D8559",
"~. c #678D59",
"^. c #6D8C59",
"/. c #73835D",
"(. c #76885F",
"). c #679151",
"_. c #6A9255",
"`. c #6E925B",
"'. c #72945D",
"]. c #768461",
"[. c #7C8464",
"{. c #7A8D64",
"}. c #7D8268",
"|. c #759561",
" X c #7E9265",
".X c #769961",
"XX c #85836D",
"oX c #87936E",
"OX c #8B8473",
"+X c #93837B",
"@X c #998A7D",
"#X c #94957A",
"$X c #988781",
"%X c #9E8E84",
"&X c #9E9284",
"*X c #A08D88",
"=X c #A49688",
"-X c #A5958B",
";X c #A9948C",
":X c #AB9791",
">X c #AD9A94",
",X c #B09D97",
"<X c #B29E99",
"1X c #B3A09A",
"2X c #B4A19B",
"3X c #B5A29C",
"4X c #B6A29D",
"5X c #B8A59F",
"6X c #B9A6A0",
"7X c #BAA7A1",
"8X c #BCA9A4",
"9X c #C0AEA8",
/* pixels */
"@XV.V.V.V.V.V.B.N.V.N.V.V.N.V.m.M.N.N.B.V.m.m.m.y.;.k.B.M.V.V.V.V.V.V.V.V.V.V.V.V.V.V.V.M.M.M.V.V.V.V.V.V.V.V.V.V.V.A.A.V.V.V.A.",
";X#X#X<X2X3X5X3X5X3X,X:X,X>X;X,X1X1X2X2X3X5X1X%X%.4.@X>X<X3X6X8X9X9X9X8X6X6X3X3X6X8X3X,X:X,X<X3X<X<X6X<X3X3X3X7X6X6X<X<X<X,X<XF.",
"-X{.-X<X1X1X<X>X,X,X:X;X>X,X<X2X1X,XoX#X:X>X>XXX;.4.%X>X3X6X3X3X3X8X8X6X<X6X6X<X3X3X5X5X3X<X<X2X6X8X3X<X<X<X3X6X8X8X8X<X<X<X6XF.",
"G.m.k.w.[ j p ! ' W _ B O.[ q./.(.0.Y.'.d.r.w.8.4.d.k.k.M.V.V.B.M.m.l.h.M.M.M.M.M.M.V.M.V.m.M.V.V.V.M.V.B.B.V.B.M.B.V.M.M.M.V.V.",
"' y y y > = , = o = z 1 *.n # U.E.f Y._.W.$ f * u y e L U ) I Y ~ P e < $.K.P.h e j n h * & & t I Y Y I P P y L L E B F U Y U Y ",
"m.,.D s.r._ _ [ 9.^ 2 m %.%.<.B.D.B.R.Y.E.^ g ..r.B.l.Z.B.v.v.x.B.S.c.Z J.a L.Y.,.C S S h.k.k.P.`.j.B.A.M.B.l.k.d.$.D d.k.f./.U ",
"3.S H d.B.B.k.w.k.w._ ;.*.%.7.B.D.A.%.Z S a 5 ..P.Q B.Z.c.$.u.d.N.Y.L.H.H.L.H.G C H.G ,.h.k.j.W._.U.h B.B.B.B.8.F H d.k.!.~.^.U ",
",.D s % %.$.p *.n o o.~.`.m 4 w e p S D v ; 5 ..K.P.% $ B $.4.! W Y.Y.Y.m l C C G D L.d $ % $ P.I.K.S M t %.N i M H r & W._.h * ",
") ( K T  .-.K.S *.w ;.`.;.5 1 1 J U ..<.~ %.n E O.O.y e I O.4.] ) / >.) U 9.B C S G Y.*.& $ y P.G Q.U.M F *...> 8 8 E W _ 9.[ ) ",
"] ^ | ..$.-.&.Z H X.h Q.=.o.i W [ 9.L h.q.;.R.$.> I Y Y ) ) S D ] [ ] ~ J B.q.' ' >.%.2 E ~ ] I.T.W.M > z 3.) : = 1 > I { { _ B ",
"e.R o...n @.p.d.F e.& Q o.-.g.D.+X{ $ h.x.3.Y.i._ k.k.r.j B.p.S v.B.r.-.i 4.U.v.B.B.B.k.k.Z.S.u.K.j %.P.K.+X+XB.p = i B.B.k.M S ",
"> R R ....7.r.1.v C ..h 4.,.g.D.F.{ L q.= B 4.a.k.l.M.x.k.A.$XOXD.b.R.~.`.P.U.e.k.B.j.e.y.n.Z.K v L.I.I.I.OX+XF.D.V.B.B.k.3.S F ",
"6.g +.#.%.%.M S C S ..# I [ W X.B.{ U k.B.B.a.x.k.z.c.k.M.B.+XOXD.].P.*.Y.$.%.5.k.k.q.-.;.i.h.* D $.I.P.I.n.D.S.S.S.Z.l.l.e.%.8.",
"D.F.D.v.2.8 8 c S X.w T _ q.q.1 v.7.J } k.F.Z.l.g.Q.'.y.8.D C.Y.Q.f.G _.S g *.k q.e.3.-.4.3.{ o a  .P.;.a.Z.b.=.I.V.A.B.B.z.k.B.",
"{ { { a.j 8 l 2 > p $.$._ ) ) W K.T.o.P [ 9.{ ~ K R.`.R.Q N I m a f o.D a b g n $.I.P.;.4.t * a Z T ....* U E Q 5.9.[ [ ) B G / ",
"I U 7.`.U.b = = 2 P.I.P.L U U Y -.Y.Y.$.Y.;.@.e J ;.`.E.P $ e > 1 1 $ f b a f s K.T.o.%.f o x K.I.n ..Q > 1 1 U L W ] [ ] >.S +.",
"I ~ /  .*.&.; , J.I.I.K.e T ~ ] ] 6.8.D $.K.U.0 e ) 2._ q q e e > > x C v M N N I I Y I q = 1 G I.| E q 1 i 1 y e P h z i I f I ",
") ) f g f Q X m C Y.Y.&.T Q +.~ [ [ $.Z K.*.2.e ) ) Y w.~ p ) ) ) ) F Z M j M C V Y ' W : 1 < 8 Q ( [ i 1 p & U q.p 1 1 i I Y ) ",
"B.k.g ..0.`.q -.Y.Q.s.q.R o.+.g.B.d.C F F 8.j.l v n e ' N.B.k.l.k.B.D.` # F Y.L.p.B.B.f.m p E d.B.D.Z.d.D +.* ) M.> i 1 5.k.M.l.",
"T.Y.e.h./ a z e 6.B.E.*.R $.#.9.x.D 2.p.2 - 1 - 2 v s y r.B.B.l.k.A.D.~ 9 %.P.I.^.C.b.n.).C.A.A.B.S.B.y.Z D e 0 j.x.! e.M.%.F 7.",
"L.Y.Y.E 1 c c > ) [.Y.E...V m y.B./.n.V.! = = < l 2 2 0 g.}.B.B.B.B.B.o.I.Y.L.I.Y./.B.D.V.S.S.Z.D.B.j.!.m D q 0 w.D.Z.B.B.B C D ",
"Y.L.Z 1 a < 2 8 >.b.H d.M.d.y.B.B.~.'.B.A.6.7 i = = = = 6. XB.k.b.h.d.I.Y.T.Y.Y._.r.b.D.A.B.A.S.Z.B.Q 7.r.g . ..R.].Z.Z.B.d.v S ",
"{ ] j = z M x 0 p i v S ! ] [ ] t.W.'.W ` ` o.2.> = = = t W E > i 0 P.P.Y.H.K.I.-.U ~ ] [ { [ { { ` R ..e + b P.Y.Y.L ~ ] [ 6.O.",
"9.] Y t q h x o.b %.l v V 0 * W R.W.|.L $ L M %.+.g f K e $ y = 1 > d F H.K.H.L.&.+ e #.Q Y >.%.] I L e y g K.m T.Y.I.b n +.' ) ",
"[ ) ) I ) S M -.h 3.0 0 f * # q.~.=.`.f * U U.E.Q R +.Y P ) ' _ = f ) Y N G K.3.P Y ~ P.Y.W ..3.' Y P ) ^ d a o. .&.L.$.$.P.&.t ",
"~ ) N D G F %.&.;.-.L Y / U   r.;.G L.I.K.~ ~.!.h n X.I ] q.g.h.k.h.q./ i _ r.h.} e.{ 8.6.Y ~ k.{ ] ' ] ^ h R d g h E $.&.$.P.-.",
"k.F S H v.f.E.b Y.P.y.!.|.#.. p v a G J.J.n.S.e.Y.*.W l.+X+X$X+X+XG.A.B.5 e.+X+XS.D.F.D.k.( ~ B.V.l.B.l.e.+.8.....9.3.P.4.Y.K.q.",
"D.1.2.B.D.A.3.L.K.L.P.~.|.^.&.*.l c c G c j M.] P.W.5.Z.D.+XC.2.D.D.A.B.B.D.G.D.Z.F.D.D.g.] U B.D.k.k.k.b.k.-.a.B.e.;.4.u.h t k.",
"D.A.D.V.d.O.m c R.U.i.~..X^.o.Y.s 2 g f = > <.t.W.Z N e.B.k.b.S y.3.y.r.b.Z.Z.Z.Z.S.S.D.9._.3.q.V.B.k.k.k.j.u.n.B.z.-.u.%.I...x.",
"i 1 r.<.F H l U._.k.d._.`.;.4 d { r.v.D.6.l C *.A _.< = i n 3.d.3.C S C 8.l.5.;.^.Z.B.B.[ ^.,.[ h.h 1 ! e.p.k.b.Z.B.u.i.9 &.z = ",
"- i y s v F H I._.).Y.Y.*., 1 q W R.).,.E C S *.Y.m = = z D $.O.u C v C v t 5 i W ` ` Y ~ o q p c z = G I.Y.U.~ [ { { ] U W p q ",
") y * r v m G K.$.Y.L.L.I.: : q P.~._.#.e p x v j % O 4 Z $.H f # # x x a ; 1 4 o e N D % + 1 v z z z K.I.Y.o.* U ~ { { ` ] ` 9.",
"+Xm.w.g a m G A J.1 o.*.n 5 M 3.Y.T._.6.} q.,.,.8.q.p >.F %.8.} q.w._ - 8 $.= 1 5 #.7.D h.w.,.l x M 7 2.2.| ..' } h.m.m.V.M.V.V.",
";X>XB.i g +.G v c 2 B.g 5 z *.I.Y.T._.>X2X%.C C S -X;X,X>X-X;X>X>X1X! - %.M %.= ;.a -X3X3X<X:Xa.x v 8 OX+Xg ,.;X%XD %.#X<X2X<XF.",
"-X>X+Xg 0.*X>X-X%XOX].n a b I.Y.Y.Y.K.1X5XXXC C i.,X3X3X#XY.oX<X3X1X>X@X!.|.{.!.2 Q.C.<X3X@X-X;X%.x D &X>XC.D.;X-XC C S ;X,X<XF.",
"G.w.k.h.h.k.m.k.q.0.Q.b 5 a Y.E.0.y.d.r.m.m.k.k.m.m.m.q.i.L.Y.i.q.u.p.} i._.I.~.Y.F e _ 3.%.c 4.R.U.y.h.l.M.B.k.h.X.C C ..{ k.A.",
"' y > - = $ * e L ..$.K.a 1 o $ 9 B 4.0 0 t t L * y y y U ;.L.*.L ;.Q $ h Y.Y.W.Y.I.m h *.%.: $.'...* e y L J U I I j n c l ; L ",
"m.6.- - p l.l.9.} q.7.s E { j.h.x o.2.5.f a v O./.B.M.V.D.$X+XD.B.C.k.9.v._.).L.J.L.K.$.*.N d e.}.B.B.B.e.r.k.l.B.V.V.Z C G ^.L ",
"i.Y.Y.K.v.l.k.h.k.k.5.F K.<.h./.O.$.E.>.5 c a C /...e.B.F.+X$XG.k.! 1 z +.b.x.1 8 c C S S q.k.l./.C.A.B.T #.9.l.B.A.D.x.i.W.'.B ",
"Y.Y.Y.Y.&.w J * & # D P.J.Y.9 *.4.-.u.o.g g 9 $ $ d Q $ q u P L t 1 5 1 q + > : = l C L.J.v * 0 $.Y.$ e d ..E e e U J $ f U.'.R.",
"<.U.Y.K.S S $ e I W Y.Y.Y.M y ..4.#.o.Y.;.L e I I I P f a r y * P i i u L U E 7 > a K.G G s e I ) ) ) f d h W t I ] ) ' _ W.;.a.",
"[ ' ' _ B S k P ! N Y.T.#.e P 8.B h Y ] ) ) ) ) ) I $ -.;.>.Y ) ] ) ' ) ` { q.q.` I m Y.;.E ~ [ { ) j > 1 p Y ) [ { [ [ h | ..E ",
"V.B.M.A.B.B.M.B C C v 8.Y U ] m.B.r.B.D.B.j.s m %.t w -.4.b.D.D.Z.B.B.B.b.Z.F.D.B.I X ) >.D D v.y.z.e.! 0.S.D.B.k.M.d.v m n j $.",
"N.x.k.x.k.M.N.F C v S e.` U ] M.A.M.k.b.Y.n z x S S > o.,.A.OXf.A.Z.B.B.B.Z.A.A.B.6 = h D D *.S F C.B.A.e.p i E q.a.S S S 7 $.I.",
"6...9.g.k.k.k.B.z.n 9.k.{ ~ { B.S.j.#.Q.!.5.>.v v C l 1 >.D.OXO.f.D.S.B.B.Z.B.B.N.U o B F *.3.j.V.D.+XD.> = = 1 f x.f.d.t i I.P.",
"R R @.g.B.k.k.x.].b.A.D.9.I 6.d.B.] $.I.).K.S D E.^ w / r.E.S *.3.E.F.D.Z.B.M.l.l.~ * ,.2.7.h.k.B.D.D.S.6.: = = p l.l.b.e P.W.Y.",
"T R +.P ` ] ~ #.U.I.W R [ U 9.*./ U X.I.Y.Y.G J._.t @ _ e.K.z ).C *.] { ] ` ` ] ] ) J } [ I ~ ~ ] ] [ 9.g.q.[ R ! ( ] ) P I.Y.T.",
"^ R X.L % 0 W -.E.o.d g ^ U I O.] ^ y $.L.Y.$.I._.m 5 i # D Z G G `.p t L Y ( ~ U y 0 X.x p j N W ` ] { 9.q.q.[ 9.] I P W I.Y.Y.",
"] ^ ] ) Y ) <.-.E.h g s *.h e ~ X.$./ y _ 3.~.~.).b i 9 % r =.-.~..Xa 1 q * y I ) ) M v C v v v B y P ) W ) ) [ [ q.I [ 3.Y.I.Y.",
"` ] ] ] [ [ 5.4.u.Q h $.P.I./ ) / c O.) ) i.`.'.-.P.Y.+.Y R R -.W..Xa : 1 P I ) ` _ >.Z C S z v a Y ) ~ = 1 Y [ { } L M.W.).).o.",
"B.k.k.M.D.F.F.5.& [ 8.g.f.!.B.k.9.N u { _ i c _.P.Y.).c.B.Q | #.R.{.b.5._ k.B.B.V.V.Z.[ # Z S a 8.A.A.D.k.! Z.D.D.9.( B.C.[.E.R.",
"k.k.l.A.+XF.Z.J o >.;.a.k.Z.b.k.q.% % ^ 2 G H.J.Y.Y.^.B.D.x.o.X.o.%.B.B.B.A.S.A.D.Z.M.( J %.O.#.v.D.D.D.F.D.D.D.Z.] J Z.A.B.z.Y.",
"k.k.B.D.G.D.C.J.K.;.u.i.g.b.l.l.{ $ e +.c 1 v I.L./.x.B.B.B.p.C Z S B.B.B.B.B.B.D.B.k.L K R 9.x.B.B.D.D.C.A.Z.Z.b.( e V.C.F 1.m.",
"k.j.7.D O.]._.J.G b u.7.} l.M.Z.g.# e S S D W.~.'.w.F U.Y.!.F D D 3.x.B.y.M m %.x.Z.b.B o.Q _ C.D.e.8.y.2.B.S.Z.l.( L k.d.1.8.q.",
"t m v D F *.T.W.= 9 P N %.@.Y ] { ` I 1.m 9 R.~..Xt c K.H.L.$.E W ~ ) ) N a P.b W.e t l l M &.U.6.~ ~ *.T.P.~ ` ` L E j.q.{ ] I ",
"1 b x F N h I._.0 * $.I.I.I.h J Y { [ L % e ~.'..Xw ; D K.$.g * e I Y P y z P.o.R.3 , 8 8 z U W Y Y ~ P.L.T.o.% + 0 ~.E.m E ) Y ",
"t N D h * L 7.u.) Y -.Y.Y.&.e 8 z g d Y ) ' u.`.'.y # z n n ..4 5 y ~ ) W W *.U._.P.P.b 1 d I U ) [ ] ) ;.K.O.y L +.P.'.D p e J ",
"N k K R Y ] { [ ) ) ` ~ ] # 6.C a a a U ) ' _ ^.^ Y U @ | B R 5 i U ` S Z S ^ U._.I.Z $.h L ) { q.} { ] ) ) ~ ] [ 7.Q.`.o., f I ",
"Y.Y.;.@.h.B.Z.B.B.Z.B.g.] e r.r.5 a / k.B.A.B.k.h.M.( e ] #./ h r.l.x.C S y.B.k.$.U.W.%.x.Z.Z.A.D.D.B.l.M.k.r.e.h.k.;.W.P.Q.B.h.",
"Y.L.P.y.l.A.A.Z.Z.B.k.q.` I N.V.0.z.!.XXA.D.S.B.l.M.` & q.f.v.k.j.l.D.D.D.D.Z.k.q z 8 f B.Z.D.D.V.A.B.k.k.x.$.*.0.q.+.=.U.0.l.g.",
"e.x.].{.l.M.Z.Z.B.k.F ,.( K k.B.OXF.}.+XF.F.F.B.e.i 1 9 ) r.b.l.l.M.A.+X+XA.}.Y.J.= = = j.Z.Z.B.Z.B.B.B.k.%.$.*.j.l.Y O { k - - ",
"r.x.A.B.Z.l.l.B.k.} 5.B U J q.B.n.S.D.D.D.D.Z.Z.q.= = 1 O ] B.l.k.x.S C.+XD.O.< 1 = l v S D.D.B.B.B.k.! b.$.*.y.b.l.L . Y.J.J.8 ",
"D X.] [ { ` ( Y P J P I L e k.q.Y.u.` [ { { { [ ) 4 = = 4 ` q.{ ` ~ ] 6.q.[ , = - l Z S D ] { { [ ] ~ : 4 ,.7.] ` ` L o Y.Y.Z l ",
"v S Q Y Y ` ` Y P L P U P U w.6.i.] ( ` ] [ ] { { [ W E [ ` ] ] ` ) [ 9.9.9.j 1 r M D D X.( ` { { { q.9.] { { { ` ~ I P 0.K.Y.J."
};
