/* XPM */
static char *result[] = {
/* columns rows colors chars-per-pixel */
"64 64 219 2 ",
"   c #714E26",
".  c #75532A",
"X  c #7B562A",
"o  c #7E592C",
"O  c #795426",
"+  c #7C5C36",
"@  c #6F4E27",
"#  c #7C613F",
"$  c #3C555B",
"%  c #3D5C64",
"&  c #3E616B",
"*  c #43646D",
"=  c #4B656A",
"-  c #546768",
";  c #456A73",
":  c #4C6F79",
">  c #486B75",
",  c #546D72",
"<  c #4D727D",
"1  c #497079",
"2  c #54747B",
"3  c #59757A",
"4  c #64797A",
"5  c #63716D",
"6  c #485B5D",
"7  c #825A27",
"8  c #835C2C",
"9  c #895F2B",
"0  c #825D32",
"q  c #805F3A",
"w  c #8D612C",
"e  c #93662D",
"r  c #97692F",
"t  c #8B6231",
"y  c #8B663D",
"u  c #926633",
"i  c #966934",
"p  c #9B6C33",
"a  c #946B3D",
"s  c #9C6E3A",
"d  c #9E713A",
"f  c #9F7036",
"g  c #A06F34",
"h  c #A47235",
"j  c #AA7636",
"k  c #AE7937",
"l  c #A3733A",
"z  c #AC7A3C",
"x  c #A8773B",
"c  c #B17A37",
"v  c #B37D3A",
"b  c #B87F3A",
"n  c #956F47",
"m  c #9E7242",
"M  c #95724D",
"N  c #9C754D",
"B  c #8C7559",
"V  c #8D7353",
"C  c #927554",
"Z  c #977955",
"A  c #8B6F4E",
"S  c #A37643",
"D  c #A67945",
"F  c #AB7B45",
"G  c #A57A4E",
"H  c #AB7D4C",
"J  c #A47748",
"K  c #B17F45",
"L  c #B07F4C",
"P  c #AB7E51",
"I  c #A77C50",
"U  c #BA823C",
"Y  c #9F815C",
"T  c #AE814E",
"R  c #B48244",
"E  c #BA8644",
"W  c #B4834D",
"Q  c #BA864C",
"!  c #BD894C",
"~  c #BE8844",
"^  c #AD8151",
"/  c #A58259",
"(  c #B48452",
")  c #B98752",
"_  c #BD8A53",
"`  c #BA8C59",
"'  c #BD9365",
"]  c #B38C62",
"[  c #C58D45",
"{  c #C38C4B",
"}  c #C98F44",
"|  c #CC934C",
" . c #C99149",
".. c #D2974D",
"X. c #D5994D",
"o. c #DB9C4D",
"O. c #D29647",
"+. c #C28E54",
"@. c #C88F51",
"#. c #C69155",
"$. c #CB9455",
"%. c #C5935B",
"&. c #CC9659",
"*. c #CD995D",
"=. c #D19753",
"-. c #D39954",
";. c #DA9E53",
":. c #D39B5A",
">. c #D99E5A",
",. c #D09759",
"<. c #DEA154",
"1. c #DCA15B",
"2. c #E3A454",
"3. c #E2A45C",
"4. c #E7A85D",
"5. c #EAAA5C",
"6. c #F3AF5E",
"7. c #EDAA56",
"8. c #C49662",
"9. c #CB9A64",
"0. c #CC9D6A",
"q. c #C69968",
"w. c #D29E62",
"e. c #D09F69",
"r. c #D6A166",
"t. c #DBA363",
"y. c #D4A26B",
"u. c #DBA66B",
"i. c #DEA96E",
"p. c #DCAB74",
"a. c #E3A964",
"s. c #EBAD63",
"d. c #E3AB6C",
"f. c #E9AE6B",
"g. c #E1A764",
"h. c #ECB16D",
"j. c #F3B56C",
"k. c #F8B565",
"l. c #E3AD72",
"z. c #E8AF70",
"x. c #ECB272",
"c. c #E6B379",
"v. c #F3B672",
"b. c #FBBC74",
"n. c #F6BB79",
"m. c #F0AF63",
"M. c #FFC37A",
"N. c #FFC175",
"B. c #4C7582",
"V. c #4F7985",
"C. c #4F7A88",
"Z. c #527782",
"A. c #547B85",
"S. c #5A7D83",
"D. c #537C89",
"F. c #587E89",
"G. c #627D82",
"H. c #56828A",
"J. c #5C828A",
"K. c #5C8186",
"L. c #5C8691",
"P. c #5C8994",
"I. c #588794",
"U. c #63848A",
"Y. c #628B95",
"T. c #628E9A",
"R. c #688D96",
"E. c #65929D",
"W. c #6B939D",
"Q. c #7A9598",
"!. c #728C90",
"~. c #6695A1",
"^. c #6996A3",
"/. c #6A99A6",
"(. c #6D9DAB",
"). c #6798A6",
"_. c #749DA6",
"`. c #6FA1AE",
"'. c #71A1AE",
"]. c #6FA3B1",
"[. c #72A5B3",
"{. c #74A8B6",
"}. c #76ABBA",
"|. c #79AEBD",
" X c #79AAB6",
".X c #7BB0BF",
"XX c #76B0BF",
"oX c #7CB4C3",
"OX c #7EB8C7",
"+X c #7FBAC9",
"@X c #819EA3",
"#X c #81A0A5",
"$X c #85A5AA",
"%X c #8AADB3",
"&X c #8BB1B7",
"*X c #81B5C4",
"=X c #81B8C7",
"-X c #83BCCC",
";X c #8BBDCB",
":X c #90B9C0",
">X c #8AC0CF",
",X c #85C0CF",
"<X c #86C2D2",
"1X c #8AC4D4",
"2X c #8BCADB",
"3X c #8BC7D8",
"4X c #92CCDC",
"5X c #91C6D5",
"6X c #8ECFE0",
"7X c #8FD1E1",
"8X c #92D3E4",
"9X c #9AD5E5",
"0X c #9CDBEB",
"qX c #95D9EA",
"wX c #9CDFF0",
"eX c #90CFE0",
"rX c #9DE2F4",
"tX c #A1E5F7",
"yX c #A1DFF0",
/* pixels */
"( ( ( _ W I N M N I ( _ +._ ) ( ^ G G N G ( ) ) _ ( P P ( ( _ %.+.#.,.,.,.&.+.+.^ ^ ^ ^ ( _ _ #.#.*.:.;.:.$.( P N N G ^ ^ ( ( ( ",
"_ _ ) _ T / G N G ^ ( ` _ _ ( P P ^ P P G ^ ( ( +.) P P ( ) _ +.) +.,.>.:.,.&.+.( ^ G ^ _ ` #.#.%.,.,.:.,.*._ ^ G N G P G ( _ _ ",
"} [ E E R U U E ~ ! [  .| { ) W ( #.$.` ` ` 8.9.9.e.0.0.0.y.e.w.0.p.x.v.v.f.d.w.8.` ` %.&.:.1.3.3.2.2.;.X...~ E F F z z l F E [ ",
" .} [ E R R F [ { {  . .Q ! W T _ &.&.$.` %.8.w.9.9.e.e.y.e.0.0.0.y.z.x.h.d.e.9.9.8.%.*.%.*.1.1.3.4.;.;.| | ! E R R R R l l U E ",
"h R W E S.K.3 3 = - w S D E E.(.(.W.W.Y.F.F.4 H K K F F K F L +.{ x g h j g i p d 4 J.U.R.R.W.W.R.U.z F y 0 , U.U.Y.U.S.E W n i ",
"p Q ( ~ 3 S.2 : > $ o D J z Y./.^.T.Y.F.4 L K F D m S K K $.Q +.+.+.) k k g j g j z S 3 A.P.Y.E.Y.S.E F m o ; H.S.F.D.Z.O.Q T f ",
"g Q H Q H.H.L.J.< % o z T l J.T.Y.D.3 n K D S F D D K _ $.$.{ +.$.@.-.>.$.z j x j v j j m 3 H.L.H.S.~ Q F 0 ; H.E.E.C.D.X.@.Q l ",
"j Q H  .3 H.E.E.H.* o F m z V.I.S.n n y m m m F F L L ) +.+._ +.&.,.>.3.1.&.#.v z j k h h z S 3 A.Z.[  .( 0 ; L.E.P.< Z.2.=.+.d ",
"k W )  .K.H.E.E.I.; w S W l - M S m m m m S J L ( ^ G ( ( _ _ #.,.&.,.>.1.&.-.$.#.z k k h h p h m - z  .W 0 ; F.T.T.B.B.o.,.+.h ",
"U T _  .3 H.P.^.I.& w S S a a D D F S F Q ,.#.+._ ^ T ( ` *.*._ #.,.>.>.1.:.#._ _ _ #.z h h i f h j j F m 8 ; P.E.Y.< < X.,.W l ",
"j F ( | K.H.E.).I.& 8 S S S m D K Q | >.1.>.$.#.T T ^ 8.%.9.*.*.:.,.w.t.1.` ( T ( _ #.$._ j f p h h h j h 8 % B.P.P.< B. .$.H l ",
"k m ( <.K.H.~.L.2 n F R F S W Q { >.4.s.4.>.#.) ^ ] ' q.%.*.-.1.3.>.t.t.w.q.` / ^ ( #.&.&.#.! l p p p r s p l - 2 H.1 * { @.G l ",
"j T _ <.U.2 G.N m S F F R E ! $.>.3.3.4.3.1.*.y.q.0.0.9.%.` q. X$Xi.1.t.r.r.r.y.y.#.$.*.-.$.#._ W i i 9 w g h g a , & * { Q H l ",
"j ! #.<.4 J D F S m S J W $.>.3.4.a.4.3.1.x.i.i.p.u.t.r.q._.{.}.XX=X$Xi.t.t.r.f.d.l.d.*.&.#._ ( ( +._ l u r p p p i q - { W H l ",
"g $.#.<.K K K D m m J +.+.$.>.3.1.4.3.h.p.l.u.d.d.s.p.'.(.].}.oXOX<X-X+X&Xp.h.N.v.v.v.d.y.#.W ( _ &.$.+.L i r p p r w 9 | W ( s ",
"g =.:.-.v D l S F _ $.$.+.+.$.,.1.s.i.0.0.i.i.h.p.$X`.'.(.].{.+X<X2X2X<X,XOX%Xl.h.j.j.f.u.r.8.( +.$.,.$.) _ +.g e e e w $.Q W s ",
"g  .1.=.d l m H ! $.*.#.#._ #.*.u.t.u.9.w.t.c.&X(.].].].[.oX}.<X2X7X2X2X6X+X+XOX:Xp.f.f.r.r.w.*.:.&.$.$.#._ ! T T t e w | _ | s ",
"h Q 1.$.d T T T _ &.-.#._ #.%.%.*.' *.` q. X}.-XoX}.{.}.].oX+X2X7X<X2X7X6X6X2X<X6X+X:Xl.m.s.a.r.*.&.1.$.#.#._ T N T T r <.#.#.d ",
"h Q :._ D Q W ( ! _ $.$.1.&.*.%.&.%.0. X`.E.`.XX<XoXoX}.}.-X3X<X7X7X<X2X6X7X7X6X2X,X,X+X&Xd.1.1.#.#.&.3.1.:._ ( T W W F <.$.$.f ",
"j ! :._ D ! +.#.#.$.-.1.$.:.<.1.0.&XoX{.`./.[.XXoXOX}.oX-X<X3X7XqX7X<X2X2X<X6XqX2X2X-XOXOX}.&Xy.1.| =.2.<.<.<._ T T T m <.$.#.d ",
"U _ *.%.R $.$.-.....=.=.-.;.y.%X.XoX[.`.`./.`.}.oXOXOX+X2X2X8X7X7X7X6X2X6X2X<X7X7X2X,X,XOXoXoX{. X9.<.<.<.X.....! T H D 1.#._ p ",
"b  .#.*.F ..o.<.<...| =.%.Q.[.|.oX{.`.`./.`.'.}.OX<XOX+X2X7X7X2X2X7X7X7XqX7X<X<X7X7X+X,XOX{.+XoX.X.X&X*.X.| O.O. .U F d #.( ( s ",
"k @.#.1.E [ o.<.2.| Q n T.Y.^.(.{.[.`.[.`.[.{.{.+X3X+X1X7X7X1X3X2X2X6X7XqX7X7X,X,X6X<X<X<XOXOXoX+XoXoX{.V ~ O.O.O.} E z :.#.Q p ",
"c ! #.t.E [ ..X.$., 7 M E./.E.(.(.{.{.{.{.oXOX.X<X3X-X2X7X2X<X2X2X2XqXqXqX7X7X2X<X<X6X<X-XOX+XOX+X+XoXXXB @ - #.O.} z d 1.-.T a ",
"U { >.f.U ~ _ !./.1 w M ).(.(.(.`.[.XXOXoX+XOXoX+X+X-X2X2X2X;X1X2X7XqXrXqXqX7X2X3X2X<X,X<X,XOXOX}.{.{.}.B . < W.!.! j p 1.1.T s ",
"U { 3.j.R 3 P.)./.A.i N ).(.[.[.`.}.oXOX,X+X<XOX+X<X<X2X2X1X1X1X6XqXrXrXrXqX7X,X<X<X<X,X+XoXoXoX}.{.}.XXB X S. X`.).3 + %.:.T i ",
"U Q g.d.S.H.W.(.(.S.e C ~.(.}.}.{.oXOX,X<X<X<X,X,X2X1X2X8X2X4X4X7XqXtXtXrXqX2X,X3X<X2X3X-X+XOXoX}.[.{.{./ . S.|.[.).1 1 9.>.+.u ",
"U +.>.d.K.H.E./.'.H.r M ).].}.oX}.oX<X2X<X3X3X,X,X2X2X1X1X3X4X0XqXwXtXrXrX7X<X,X<X3X+X1X,XoX{.].}.oXoX{.Y @ J.|.{.`.C.V.q.3.$.t ",
"c { w.d.F.F.E.E.W.2 9 Z }.'.}.oX].}.,X7X7X<X6X<X1X8X-X1X1X9X0XyXrXrXtX0X6X3X<X,X-X-X<X-X-XOX{.[.oXoX`.(./ . L.}.[.(.Z.D.e.3.$.t ",
"c L &.e.S.F.E.E.W.2 9 C oXoX{.}.{.OX+X2X8X7X2X2X1X1X1X>X4X9X9XyXtXwX0X9X8X3X<X3X<X=XoXoXOX}.{.{.[.].`.).Y @ F.}.[.^.V.D.d.,.+.u ",
"h K %.q.K.A.E.E.T.2 7 V }.oX[.oX}.oX,X2X8X8XqX7X2X1X1X;X1X9X0XyXyXyX9X4X0X5X<X6X-X1XOXOX|.}.[.[.{.[.).].Z o F. X[.(.D.Z.l.&._ g ",
"g K %.' J.S.).^./.S.7 B oX{.OX|.}.oX+X2X6X7X8XqXeX2X1X1X4X0X0XyX9X4X9XqX9X7X6X1X<X<X-XoXOX}.{.{.`./.`.[.C 8 S._.)./.V.A.u.,.( x ",
"U Q %.y.K.H.E./.(.S.r Z .X{..XoXoXoX+X+X3X6XeXeXeX6X3X;X;X9X9X0X9X4X0XyX0X8X1X,X-X-X-XoXOXoX[.[.{.(.[.(.B . S._./.).D.D.q.&.I u ",
"k { *.u.K.H.`.[.[.J.w Z OX.XXXXX[.].oXoX-X-X6X6X3X;X;X;X;X;X;X9X4X5X9X9X9X2X>X=X-X=XOX*XoXoX[.oXoX[.[.oXB . S.W.E.~.V.F.q.#.G s ",
"p  .*.u.K.H./.{.}.F.X / .XOX|.{.oX[.oX+X-X6X6X6X3X-X*X;X4X;X5X;X5X>X5X5X4X,X.X.X*X*X=X*XoXoX[.oX`.[.oX[.B X S._.R.~.V.Z.e.:.L l ",
"r ,.1.%.S.H./.`.|.U.. / .X.X[.XX{.[.oX+X-X3X2X2X;X=X-X*X*X*X;X;X5X5X5X5X1X=X+X&XoXoXoX{.[.{.{.[.oX{.oX[.Z X 2 _.R.~.V.D.z.g.L g ",
"p ,.>.' S.H./.{.}.F.. P `.{.XXoXoXoXOX+X-X=X-X3X-X-X3X-X%XoX*X;X5X-X5X1X-X-X-X.XoX{.{.[.[.{.{.'.(.[.[.(.C 0 S.'.^.T.C.F.h.3.+.x ",
"h  .,.8.2 < /.{.{.Z.7 Z /.(.}.oXoXoX-X-XOXoX-X-X<X6X3X-X*XoX*X=X;X=X>X=X=X=X&X.X{.{.*X'.(.].'.{.(.(.~.(.C 0 F.'./.).B.Z.h.s.L z ",
"h Q &.8.{ 4 ).].[.Z.8 C (.`.}.oXoXoXoX+XoXoXOXoX=X3X3X-X*X*X X*X|.-X-X*XoX=XoXXXoXoXoX'.(.(.(.(.`.].(.(.Z 8 F././.T.4 +.k.s.+.z ",
"j Q ,.w.O.o.:.!.^.> 8 C `.].{.}.oXoXoXoXoXoXoX{.oX-X3X3X-X*XoXoX*X=X>X|.|.oX*XXX{.[.(.~.~./././.).).^.).C 0 Z.^.!.8.X.@.j.3.L x ",
"h R &.w.O.<.o.o.#.- O A `.'.}..X{.oX].{.oXoX{.oX XoX-X-X*XoXoX*XoXoXoXoX|.oX{. X'.(.(.^.(.'.(.^.E.E.E.E.C . 5 *.+.@.-.@.a.-.) l ",
"j Q +.&.} O.o.<.X.E ~ M ].].`.{.].{.oXoX].].].).(.'.{.|.[.|.=X=X=X*X|.}.oX[.(.[.^.^.(.(./.^.)./.T.T.T.T.M =.1.=.=.-.;...3.$.+.s ",
"j ) ( %.F [ O.o.| ! { X.r.Q.).[.{.{.oX{.[.(.(.(.E.).(.'.[.|.oXoX|.[. X}.'.(.~.^.(.'.[.(.(.^._.^./.P.!.9.>.1.;.>.;.3.;.L 1.$._ h ",
"j @.) &.S H Q } ~ R { $.2.2.u.#X).{.].].(.(.(.].[.[.(.[.|.oX[.[.'.(.[.oX{.^.E.^.'.'.{.'.(.^.(.(._.' _ ,.>.1.>.3.>.@.R S ,.:.) j ",
"c $.#.,.J H ( _ Q { Q @.5.6.6.s.l.@X'.`.(.[.[.(.(.'.(.[.{.[.'.(.(.}.oX[././.].[.'.`.(.].(.~.@Xe.w.>.w.g.4.s.5.>.#._ W J #.1.Q s ",
"c $.#.;.S W { +.+._ ( $.1.6.s.3.g.g.u.@X(.^.^.(.(.[.[.(.(.(.(.(.'.{.(./.'.(.(.[.].].[.[.@Xc.j.t.w.a.s.a.a.3.3.>.-.! H J { 1.W i ",
"k $.@.,.O L +.$.#.( I L @.>.w.1.w.3.g.a.l.@X(.(.(.[./.(.^.^.(./.(.(.W.^.'.).(.[.(.[.%Xn.b.b.j.e.a.f.j.>.>.>.1.;.$.+.D . =.3.( i ",
"j  .) {   7 i ! +.P J I _ +.+.%.%.8.w.f.j.b.c.@X].[.'./././.^.E.(./.T./.(.(.).'.$Xc.n.b.b.n.z.d.a.&.,.-.:.>.1.:.@.u 7   ;.>.+.i ",
"k ! ) { O O w w r R T ( _ _ ! ^ ^ ` 9.e.d.j.v.b.n.@X/.(.`._./.).).E.W.^.).^.Q.n.n.M.b.n.v.l.e.) ` #.,.$.#.$.$.d s w X . 2.1.#.u ",
"k Q P { w O O w w w e R _ _ ( ( G I P q.y.i.j.b.b.N.h.@X/.(.(.`.~.T.P.F.Q.p.v.n.M.M.M.b.z.%.` ) +.&.#.+.Q s t t t o 7 X 2.=.@.u ",
"v F P Q - X w w o w 7 w i _ _ T H P N G P q.l.z.h.h.h.s.i.'.`.`.E.Y.Q.x.z.v.b.n.M.M.b.w.:.>.#.+.&.#.) s s i t X o o + 2 2.$._ i ",
"U W ( Q , ; = + O w w 7 w e i T ( ( P H ^ _ %.u.y.d.u.r.1.r.8.Q.!.p.f.d.z.n.M.b.n.t.,.$.,.w.:.&.+.i 0 u i s w X # 2 < V.7.#.J s ",
"b J _ R > : K.2 = + w w w e w w e L ) _ &.+.#.+._ 0.d.u.t.1.:._ 9.t.f.z.v.M.b.>.%._ _ +.,.>.$.s 9 0 t i i i y 2 L.~.D.F.2.! N p ",
"U W @.{ 2 : Y.P.< $ O e w e r e w 9 e +.,.$.%._ _ ( #.u.g.1.%._ 9.w.w.v.b.3.>.&.%._ ( +.#.S i 9 9 u 0 t i X * I.).T.V.D.o.+.J s ",
"b R $.| 3 < P.E.I.& e D z r r r e r r r z =.+.+.+._ _ #.` *.*.$.w.d.h.1.>.>.>.&.%.+.( t 0 9 9 0 0 . 0 S m o * L.).E.B.Z.X.@.H l ",
"b { &.=.K.< Y.E.H.; t Q { f = t w e r g g r g +.#.#.( ( ( _ ( $.1.,.>.3.,.:.>.>.,.l t X X 0 t t + 6 j W J o ; I.E.~.D.D...+.P g ",
"c @.#.;.H.< L.T.I.; t !  .F < 2 3 y r e r e e u p +.( L ( ) P +.#.,.>.1.-.:.,.x g s 9 8 X 7 n - < : U D J X * D.T.E.V.Z...W W i ",
"c ! +.| K.D.T.~.I.& w R Q R 2 H.F.Z.3 y e e r r r i t F L L L +.,.,.,.,.Q u i i u u 0 0 # - : : Z.< x F S . % F.L.J.V.D.{ W L u ",
"k R _ [ K.A.; 1 & ; t S T R J.T.T.Y.F.Z.3 8 7 8 w e 7 X 8 G +.+.$.$.+.y 0 o 8 0 7 0 q - > Z.Z.F.H., F F S . $ : % & : 2 { ) ( u ",
"g N T z K.< 2 < V.; t y J x U.^.^.W.R.Y.G.S., 0 w e 9 8 7 9 u +.{ l 9 9 9 8 . . + - , Z.S.G.F.U.J.K.~ F m 8 $ $ * ; : : } R H a ",
"X.{ Q [  .$.#.#.$.-.;.<.5.6.k.k.m.f.g.t.a.e.e.u.d.f.x.b.n.b.l.y.l.l.l.l.l.l.u.e.u.y.w.9.t.a.t.8.+.%.-.,.>.>.;.;.-.{ @.=.=.X.<.<.",
";.X.{ K { ! ! { $.;.5.5.6.6.k.k.k.m.g.t.w.8.0.e.f.v.b.b.M.n.v.l.l.l.l.l.l.i.d.d.d.e.w.9.w.t.1.&.&.&.>.;.>.>.-.-.$.+.@.$.| =.<.o.",
"+._ ) I P I N G ( _ &.,.:.:.-.$.%.%.%.) L P P ( +.&.>.>.w.,.%.L %.L +.P P P ) %.` L ^ G P L ^ P ^ ) _ +.+.) L I J I P L +._ +.+.",
"L ( ( P P I N N P ( &.-.1.:.,.%.+.+.) _ L P P L +.+.&.&.,.,.&.+.%.%.` P P P L +.( ` ( G G G I P ^ ) _ +._ L P N M N I ( _ ( ( L "
};
