/* XPM */
static char *e6b990be35d54066a8a94362acae7171AqYDuS1dLD2NJSAs[] = {
/* columns rows colors chars-per-pixel */
"64 64 3 1 ",
"  c #785437",
". c #9F714A",
"X c #B88764",
/* pixels */
"XXXXXXXXXXXXXXXXXXXXXXXXXXXXXXXXXXXXXXXXXXXXXXXXXXXXXXXXXXXX    ",
"XXXXXXXXXXXXXXXXXXXXXXXXXXXXXXXXXXXXXXXXXXXXXXXXXXXXXXXXXXXX    ",
"XXXXXXXXXXXXXXXXXXXXXXXXXXXXXXXXXXXXXXXXXXXXXXXXXXXXXXXXXXXX    ",
"XXXXXXXXXXXXXXXXXXXXXXXXXXXXXXXXXXXXXXXXXXXXXXXXXXXXXXXXXXXX    ",
"XXXXXXXXXXXXXXXX........XXXXXXXXXXXXXXXXXXXXXXXXXXXXXXXX....    ",
"XXXXXXXXXXXXXXXX........XXXXXXXXXXXXXXXXXXXXXXXXXXXXXXXX....    ",
"XXXXXXXXXXXXXXXX........XXXXXXXXXXXXXXXXXXXXXXXXXXXXXXXX....    ",
"XXXXXXXXXXXXXXXX........XXXXXXXXXXXXXXXXXXXXXXXXXXXXXXXX....    ",
"XXXXXXXXXXXXXXXXXXXXXXXXXXXX................XXXXXXXXXXXXXXXX    ",
"XXXXXXXXXXXXXXXXXXXXXXXXXXXX................XXXXXXXXXXXXXXXX    ",
"XXXXXXXXXXXXXXXXXXXXXXXXXXXX................XXXXXXXXXXXXXXXX    ",
"XXXXXXXXXXXXXXXXXXXXXXXXXXXX................XXXXXXXXXXXXXXXX    ",
"                                                                ",
"                                                                ",
"                                                                ",
"                                                                ",
"XXXXXXXX....XXXXXXXXXXXXXXXX    XXXXXXXXXXXXXXXXXXXXXXXX....XXXX",
"XXXXXXXX....XXXXXXXXXXXXXXXX    XXXXXXXXXXXXXXXXXXXXXXXX....XXXX",
"XXXXXXXX....XXXXXXXXXXXXXXXX    XXXXXXXXXXXXXXXXXXXXXXXX....XXXX",
"XXXXXXXX....XXXXXXXXXXXXXXXX    XXXXXXXXXXXXXXXXXXXXXXXX....XXXX",
"XXXXXXXXXXXXXXXX....XXXX....    ....XXXXXXXXXXXXXXXXXXXXXXXXXXXX",
"XXXXXXXXXXXXXXXX....XXXX....    ....XXXXXXXXXXXXXXXXXXXXXXXXXXXX",
"XXXXXXXXXXXXXXXX....XXXX....    ....XXXXXXXXXXXXXXXXXXXXXXXXXXXX",
"XXXXXXXXXXXXXXXX....XXXX....    ....XXXXXXXXXXXXXXXXXXXXXXXXXXXX",
"........XXXXXXXXXXXXXXXXXXXX    XXXXXXXXXXXXXXXXXXXX............",
"........XXXXXXXXXXXXXXXXXXXX    XXXXXXXXXXXXXXXXXXXX............",
"........XXXXXXXXXXXXXXXXXXXX    XXXXXXXXXXXXXXXXXXXX............",
"........XXXXXXXXXXXXXXXXXXXX    XXXXXXXXXXXXXXXXXXXX............",
"                                                                ",
"                                                                ",
"                                                                ",
"                                                                ",
"XXXXXXXXXXXXXXXXXXXXXXXXXXXXXXXXXXXXXXXXXXXXXXXXXXXXXXXXXXXX    ",
"XXXXXXXXXXXXXXXXXXXXXXXXXXXXXXXXXXXXXXXXXXXXXXXXXXXXXXXXXXXX    ",
"XXXXXXXXXXXXXXXXXXXXXXXXXXXXXXXXXXXXXXXXXXXXXXXXXXXXXXXXXXXX    ",
"XXXXXXXXXXXXXXXXXXXXXXXXXXXXXXXXXXXXXXXXXXXXXXXXXXXXXXXXXXXX    ",
"XXXXXXXXXXXXXXXXXXXXXXXXXXXX............XXXX....XXXX........    ",
"XXXXXXXXXXXXXXXXXXXXXXXXXXXX............XXXX....XXXX........    ",
"XXXXXXXXXXXXXXXXXXXXXXXXXXXX............XXXX....XXXX........    ",
"XXXXXXXXXXXXXXXXXXXXXXXXXXXX............XXXX....XXXX........    ",
"XXXXXXXXXXXXXXXX................XXXXXXXXXXXXXXXX........XXXX    ",
"XXXXXXXXXXXXXXXX................XXXXXXXXXXXXXXXX........XXXX    ",
"XXXXXXXXXXXXXXXX................XXXXXXXXXXXXXXXX........XXXX    ",
"XXXXXXXXXXXXXXXX................XXXXXXXXXXXXXXXX........XXXX    ",
"                                                                ",
"                                                                ",
"                                                                ",
"                                                                ",
"XXXX....XXXXXXXXXXXXXXXXXXXX    XXXXXXXXXXXX....XXXXXXXXXXXXXXXX",
"XXXX....XXXXXXXXXXXXXXXXXXXX    XXXXXXXXXXXX....XXXXXXXXXXXXXXXX",
"XXXX....XXXXXXXXXXXXXXXXXXXX    XXXXXXXXXXXX....XXXXXXXXXXXXXXXX",
"XXXX....XXXXXXXXXXXXXXXXXXXX    XXXXXXXXXXXX....XXXXXXXXXXXXXXXX",
"XXXXXXXXXXXXXXXX........XXXX    ....XXXXXXXXXXXXXXXXXXXXXXXXXXXX",
"XXXXXXXXXXXXXXXX........XXXX    ....XXXXXXXXXXXXXXXXXXXXXXXXXXXX",
"XXXXXXXXXXXXXXXX........XXXX    ....XXXXXXXXXXXXXXXXXXXXXXXXXXXX",
"XXXXXXXXXXXXXXXX........XXXX    ....XXXXXXXXXXXXXXXXXXXXXXXXXXXX",
"XXXX........XXXXXXXXXXXX....    XXXXXXXXXXXX....................",
"XXXX........XXXXXXXXXXXX....    XXXXXXXXXXXX....................",
"XXXX........XXXXXXXXXXXX....    XXXXXXXXXXXX....................",
"XXXX........XXXXXXXXXXXX....    XXXXXXXXXXXX....................",
"                                                                ",
"                                                                ",
"                                                                ",
"                                                                "
};
