/* XPM */
static char *da99c9b870d044acd553fce4021f7284fEyygqblNdBxx3yw[] = {
/* columns rows colors chars-per-pixel */
"64 64 176 2 ",
"   c None",
".  c #161415",
"X  c #1A1718",
"o  c #1E1C1D",
"O  c #211D1E",
"+  c #2C241E",
"@  c #201E20",
"#  c #252224",
"$  c #2A2524",
"%  c #2F2824",
"&  c #272428",
"*  c #2A262A",
"=  c #2E292D",
"-  c #302724",
";  c #332A26",
":  c #392E25",
">  c #332D2D",
",  c #3F3327",
"<  c #3C322C",
"1  c #2F2B30",
"2  c #322E32",
"3  c #363135",
"4  c #393336",
"5  c #373238",
"6  c #3C363A",
"7  c #3E383D",
"8  c #403325",
"9  c #43362C",
"0  c #46392D",
"q  c #4C3C2D",
"w  c #403733",
"e  c #463A33",
"r  c #4B3D32",
"t  c #413A3E",
"y  c #493F3C",
"u  c #55432E",
"i  c #58452F",
"p  c #4E4034",
"a  c #4D403B",
"s  c #544332",
"d  c #594631",
"f  c #5D4933",
"g  c #51443B",
"h  c #5B4B3C",
"j  c #614D35",
"k  c #624F3A",
"l  c #645037",
"z  c #66523A",
"x  c #6A553C",
"c  c #6D593E",
"v  c #705A3F",
"b  c #3F3A40",
"n  c #463F44",
"m  c #443D42",
"M  c #483F40",
"N  c #474043",
"B  c #464044",
"V  c #474045",
"C  c #474145",
"Z  c #464045",
"A  c #474146",
"S  c #474045",
"D  c #494145",
"F  c #484146",
"G  c #484246",
"H  c #494247",
"J  c #494246",
"K  c #4B4347",
"L  c #494244",
"P  c #494246",
"I  c #494248",
"U  c #4A4348",
"Y  c #4A4349",
"T  c #4B4449",
"R  c #4B4448",
"E  c #4B454A",
"W  c #4C4549",
"Q  c #4C454A",
"!  c #4D464B",
"~  c #4E474B",
"^  c #4E474C",
"/  c #4F474C",
"(  c #4C454A",
")  c #4F484D",
"_  c #4F484D",
"`  c #5D4D43",
"'  c #50474B",
"]  c #51494E",
"[  c #514A4F",
"{  c #524A4F",
"}  c #51494E",
"|  c #524B50",
" . c #534C52",
".. c #544C51",
"X. c #544C52",
"o. c #554D53",
"O. c #554D52",
"+. c #554E53",
"@. c #564E53",
"#. c #564E54",
"$. c #574F55",
"%. c #544D52",
"&. c #584F54",
"*. c #575055",
"=. c #575055",
"-. c #585056",
";. c #595157",
":. c #595156",
">. c #5B5358",
",. c #5C545A",
"<. c #5C5359",
"1. c #665445",
"2. c #6A5744",
"3. c #6F5A43",
"4. c #6E5A46",
"5. c #715D40",
"6. c #725D42",
"7. c #715E49",
"8. c #776146",
"9. c #766245",
"0. c #796247",
"q. c #786446",
"w. c #7A6547",
"e. c #76614C",
"r. c #7B6449",
"t. c #7B664A",
"y. c #7E694B",
"u. c #7D694A",
"i. c #786553",
"p. c #7C6855",
"a. c #7F6D5D",
"s. c #836F4F",
"d. c #826D4E",
"f. c #836D54",
"g. c #826E5A",
"h. c #867151",
"j. c #867151",
"k. c #8A7555",
"l. c #8D7957",
"z. c #87735D",
"x. c #8B755C",
"c. c #8F7A59",
"v. c #927E5C",
"b. c #877462",
"n. c #8B7761",
"m. c #8E7962",
"M. c #95815E",
"N. c #968260",
"B. c #9B8464",
"V. c #9E8A67",
"C. c #948069",
"Z. c #9F8768",
"A. c #98846D",
"S. c #99856F",
"D. c #9B8670",
"F. c #9E8A73",
"G. c #A28D6C",
"H. c #A5926F",
"J. c #A08C75",
"K. c #A79471",
"L. c #A99672",
"P. c #A99572",
"I. c #AC9975",
"U. c #AE9C78",
"Y. c #B09E7A",
"T. c #B4A27E",
"R. c #B6A480",
"E. c #B9A783",
"W. c #BAA985",
"Q. c #BEAD89",
"!. c #C0AF8C",
"~. c #C2B18E",
"^. c #C5B592",
"/. c #C9BA97",
"(. c #CCBD9B",
"). c #D2C4A4",
/* pixels */
"m V m m t 6 w 4 3 6 7 m 7 6 2 5 E Q F  .+.+.X.] ] X.X.m b 5 = m K F m m n Y Q Q E F U E V E m 2 7 5 5 5 2 2 t t m E Q Q E F F m ",
"n F F m 7 7 7 6 4 4 t 7 7 4 6 3 6 7 6 Y =.+.X.Q ] +.+.+.n b = t K n m t m n / / E V N V V E Q 4 7 4 5 > 2 = 4 4 7 F Q ' Q F U m ",
"U N V t t t 7 6 7 6 7 7 6 5 6 7 7 7 3 5 ;.+.$.] ] +.X.X.>.Y * e t n m t m F Y Y V B V E E V m 6 6 4 3 2 2 > 2 1 3 4 m F F F Q U ",
"F m t t t t 7 t 6 7 7 6 7 6 6 7 m m 6 = Y +.+.] / | | ;.,.-.@ k 8 7 m m n Y Y n N m V U N 6 t t m t 4 2 5 5 6 1 * 4 t m F F U Q ",
"m V t 6 t y n m 7 7 7 6 7 6 7 t m b t 5 2 +.+.] +.X.{ X.+.Q + 6.u 5 7 n Y Y F m 7 t N t 7 6 m 7 m m 7 7 6 3 2 1 1 > 7 N W N V F ",
"6 6 t t t m m 7 7 7 7 7 7 6 6 7 m m m 7 2 X.;.$.>.>.X.] F M 5.f i , 5 V / Q E F t 7 t m B m t 7 m m m 7 7 6 2 1 2 > 3 > 6 m N 7 ",
"= 4 7 t t t m t 7 m m t m t 6 7 m m m 7 2 | $.>.$.$.X.F M y 0.f i u > m Q Q Y n V m N t m t 7 B m t 7 6 7 m 6 5 2 1 # = 5 7 6 1 ",
"6 6 4 6 t 7 t m b B m m m 7 6 7 7 7 6 6 2 $.;.$.| | ] F m k j j d i 9 4 F Y n n V N 7 6 6 7 7 B m m 7 7 7 7 m 5 5 5 7 t 7 t 4 6 ",
"7 7 2 6 t 7 7 7 7 7 7 t m 7 6 6 6 6 6 4 5 +.+.{ ] Q F M y x z j f i u > 6 V V B B 7 6 4 4 6 6 m m 7 7 7 7 7 m t 6 7 t y 7 7 5 6 ",
"7 6 = 5 7 7 6 t 7 B t 7 7 7 6 6 4 5 6 2 m $.] ] F t t 4 v x v c l d d 9 3 6 3 7 7 7 4 5 6 7 7 7 m 7 7 7 7 7 7 t t t t m V N t 7 ",
"Y 6 2 2 6 5 7 m N 7 7 6 7 7 6 6 6 5 6 = Y ;.Q K N m t w G.c s.w.x d d d > 5 $ = 4 4 4 6 6 7 7 7 m B m m 7 6 7 m m m F _ ~ U Y Q ",
"Y m 4 5 5 2 5 m B m 7 6 7 7 7 6 6 6 5 = ] F m m M t t w 0.u.L.s.9.f d A.5 5 6 5 4 4 6 7 7 7 t 7 7 m t m 7 6 y N Q Q W ~ E V V U ",
"V F Y Y 7 2 5 5 m t 7 t m m 7 t 7 6 2 5 M t y t m e t t h f.!.k.9.f f b.1 4 4 6 5 4 4 7 7 7 7 7 7 t 7 6 6 7 N U _ _ Q E V V E E ",
"Q n F Q E m 5 5 5 7 6 7 7 B B m 6 > = 2 t t t t e d r t y y.~.s.q.x x 7 = d u > 3 5 4 6 7 7 7 4 6 7 t t 4 7 N U E _ Q V V _ ] ] ",
"Q F V F E ~ m 5 2 5 Q _ _ E V m m t 6 > t 6 e d j f i e 6 j K.q.9.5.s 5 4.f d i 9 > * = 4 4 5 5 5 4 7 t m F N V V F V m V _ _ Q ",
"F V V n F E E 5 2 6 g 1.r p r e 0 e t 4 4 4 t g v.L.8.i 2 0 w.c v x < e x l f d 0 $ @ o = , q 9 0 0 9 0 ` t 7 N V V m m U ] ~ F ",
"V n n n V F F m > N ' z k j d i i i i u 9 > 4 t y I.Q.c q 2 j j x i $ h.K.l.s > + X O 8 u i i i i d i l z.7 t V F V m m V E Q F ",
"V F m N E E Y 7 t K ' { f.!.E.G.9.j d i i i q 6 m m g l f h 4 4 6 4 e.H.I.p = + + q i i d f f l f f d d 6 m N F U V m m t 7 m N ",
"F F N U Q Q m 7 W Q ] X.L G.!.~.T.L.l.v j f i i q 9 4 4 r 4 9 q q , 5 p > = 0 i l k.H.T.L.l.w.x l f d 9 7 n n n V V m m V m m V ",
"F E V E Q Q 7 ' { &.X.X.{ s h.l.l.s.q.c z j f f f f u q = d f f i q , $ l v M.T./.).).^.L.k.c z f d r n 5 7 m m V Q V N n m m V ",
"m m m Y E F m ' +.>.&.] ] ' i x x z l j f d d d i i f e.% G.c x j f q ; 9.d.B.T.~.~.E.V.y.x l d d r F ~ F 6 6 n Q ] E t 7 7 b m ",
"6 6 5 7 E E F { +.$.+.] ] ] { W ~ ' U V W W w 4 t t 4 < < B.K.M.v j J.> > 4 t 6 a W { =.+.~ ' } _ ~ E Q F Q b n ~ ~ 7 4 6 3 4 5 ",
"t 7 5 2 m Q F &.+.+.X.] ] Q ] X.{ { _ E _ _ 4 $ 4 0 q q 2 u T.E.r.f z < i q 0 t t E { =. .{  .=. .] _ Q  .+.Q 6 ~ t 4 t t 7 7 6 ",
"m t 2 2 2 m N { X.+.] ] ] ] X.+.{ W a t a s i d d i f 2.a < u z d q % 9 z z j i i u p p N E _ _ ] ] ] Q ] +.+.7 6 7 7 m V V V V ",
"t t 7 2 1 1 m ] $.+.] ] ] | ;.;.L 6.j z x c c l f d d > 4 < ; < > > 9 - > z v.v.c f d d i i b.t Y _ ' Q X.+.+.7 t t 7 m m t m m ",
"7 7 7 7 1 = 7 | +.+.| ] | $.;.,.{ u c v.R.E.k.l d 9 # : d d $ q , r P.u - @ k ~.Q.k.l d d z.q 7 F F Q ] X.;.+.6 6 t 7 m 7 m m 7 ",
"7 6 7 7 6 1 b [ | $. .| X.$.+.+./ y i W.(.K.x u + o : i i d > j u # L.f u - # t H.L.8.j f s 7 B F Q Q X.+.;.] 4 w 7 m V m m m 7 ",
"6 7 7 t b 3 2 _ +.+.| +.X.X.] Q I t r k.M.x , o o < d i k a y f u > 2.5.i u ; 2 E h x j d 6 7 U Q ] X.+.;.$.F 6 t t t V m m b 7 ",
"7 6 7 m t 6 5 5 / +.X.+./ n Y n V m y q d + . O 0 f f d x.N g f u y ' 6.j i u < 7 V y s 0 m n ] +.| ] ] $.$.m t m t t t m m t 7 ",
"m 7 7 m 7 6 1 1 4 Q V m t 6 2 6 7 7 6 6 5 &   h x z l f a.V h d u g ] 1.x f i q 4 b V I W ] | +.+.Q ] +.+.=.7 7 t 7 t t m t 7 m ",
"7 7 6 7 7 3 1 & = t y m t 6 5 4 6 6 7 6 2 = d 8.x 9.f x.N V f d i q W L q.x i i u 4 6 m Q +.&.&.Q 6 4 6 7 m = 6 7 7 4 7 6 6 6 6 ",
"6 6 6 6 6 = = 7 m t 7 7 6 t 4 4 6 4 4 4 3 r r.x k.k.j p.m m j d i u t F 6.d.x i d d 4 6 F ] ] m t 4 6 6 5 3 & > 4 6 5 5 5 4 6 5 ",
"6 6 6 6 5 = 2 y 6 4 6 4 6 7 7 6 4 6 6 4 4 r u.s.W.l.k ` t y j d f u w m g I.6.f d m.0 $ = 5 6 t t y 7 7 6 = 2 2 2 3 6 6 5 6 6 4 ",
"6 6 6 6 2 = 6 t 6 4 6 6 7 7 m 7 6 7 m 7 t 3 j I.(.f.7.6 w r j d i u 4 7 7 I.M.k f D.4 3 2 4 6 7 m N n Y U 5 5 7 6 2 4 6 4 4 5 4 ",
"U E V m 5 # 4 4 4 4 6 m m m m 7 t 7 m t t 4 0 Q./.0.r 6 6 1.j d i i 0 7 7 r.R.x z 9 t N V F m m m m 7 V E E 7 5 5 2 = 3 6 4 6 7 ",
"U V I V I V 4 2 4 6 6 m m t m m m m t t t 6 6 M.W.x 3 3 4 3.j f i i q 4 6 4 T.0.d 4 m N V F m m m m n Y E E E V 5 = # * > 6 7 U ",
"Q F U Q I b n 5 4 7 t t m m t 7 m 7 m 7 m 7 m r v.r 2 3 w 6.j f d i u 3 3 > j.y.9 a F V E V V m m m V E E F m m 4 t U F N F F U ",
"W Q ] ] I b n 6 4 6 t t 7 7 7 m m 6 7 7 t t m 4 j < 2 3 r d.k j i i i 5 5 3 e l > F E U E G V V m m V _ _ G t m 6 W ] U V V N F ",
"{ =.;.;.! m m 7 4 6 7 6 6 6 7 7 6 6 6 m m t m t 0 2 > 3 7.z x j d d d < 5 7 B 9 4 U E Q E V m m m m V _ Q V m m 5 ] &.' F N W Q ",
"+.;.>.<.=.Y 7 t 5 4 t 6 6 6 6 7 6 7 7 m m t t m 4 2 6 4 G.x x j d d d e 3 7 b = t m m V E V m m m m V V V 7 7 B 6 ' { +.+.+.{ :.",
"+.;.,.,.,.] Q 7 4 6 6 6 6 7 7 7 b 7 6 m 7 6 7 7 * o 4 7 B.x x j d d d p = 1 = # 6 t B V E F m m m m m m m b b n m { { ] &.&.+.+.",
"+.;.,.<.;.] / 7 5 2 6 6 7 7 t 7 7 7 6 7 m 7 7 4 # . O ; x.c v z d d d d # @ & & 3 7 V E E V N m b n m t b m Y Y Q ] ] ] +.$.,.$.",
"+.;.>.;.X.X.| 6 = 6 6 6 t 7 m m t 7 7 7 7 7 6 = o . X ` B.5.6.x d d d h # $ = 3 3 4 U U E V V N m m m m m n ^ ^ K { ] Q ] +.+.{ ",
"Q +.+.+.[ X.X.5 6 > 6 m m m Y F m 6 7 7 7 7 5 * # = 2 f.v 6.d.v f d d l < = 1 3 3 3 N U V V m m V F Y E m Y Y Y W &.+.{ ] +.+.] ",
"/ | | _ ! [ / b b 2 2 t t m F F m 7 7 7 6 7 1 5 > > 4 k.c u.h.8.f d d j i.3 2 3 3 3 3 m N t y F Y Q Q ] Y n Y n t ' X.X.X.>.$.{ ",
"[ [ | | | | [ n 5 5 2 6 6 t t m n 7 t t 7 2 > 7 t 4 4 d 9.y.c.y.f d f z g 3 3 3 3 5 * 3 t t ' W n V F ] Y n n 5 t K +.&.$.;.X.] ",
"[ | X.$.X.o.o.E 6 6 4 t 6 6 6 6 6 3 5 6 2 = 6 7 t 6 4 0 6.h.V.j.j f d F.4 4 4 2 5 2 = 6 Q ' { ' Q Q ] X.Y n b 6 4 y ] ;.+.] ] ] ",
"| | X.$.$.o.o.b 7 y m t 6 t t t 6 2 2 5 5 = t t 7 7 7 4 x c.I.c.j d f S.> 7 7 1 3 6 E E ' ] { :.+.+.&.<.o.m b 7 6 t K X.X.] +.X.",
"[ [ o.| | +.Y 6 F y m N F F F E V m 2 6 6 2 5 t 6 t t 3 i M.E.B.l d e.z.= 5 7 5 5 W K ' ' X.X.] ] ] +.<.,.+.m 6 b b m n | / | X.",
"Y / ! ! m 6 5 m F m F F Q F F F V m m m b 3 2 7 6 t t 4 r N.~.H.z d z.p * 3 6 7 6 ' ' &.;.+.] F F Q +.<.>.+.| n b b 7 7 V E n F ",
"I n m n b 5 4 m m F K N F m t V m m m U ! 6 2 5 6 t 7 4 < l./.U.z f C.> > 5 4 6 N { $.<.;.] / F F ] +.+.] ] X.+.Y b b 7 K Q V F ",
"Y n m 7 m m n m F Q Q F V 7 t m m m N F ! I 1 6 7 6 7 > 3 x (.E.z 9.h 2 > 5 5 m W ' ] ;.;.+.] Q Q ] +.] Q / ] +.| / 7 Y Q ' F F ",
"n V m t 7 m n b F F F m V m m F V m N F E Y 5 5 7 6 3 2 > q (.E.c f.9 3 2 6 t y K { ] {  .$.$.] ] ] ] ] Q ] X.| ] V N ] ' W N N ",
"m I m 7 7 m 6 6 F Q F E E V V F Q F F Q E V 7 2 t 6 3 > > 4 T.Q.3.f.3 3 5 7 4 t { &.X.&. . .+.;.+.+.] Q ] ] | +.+.N { ] Q F m m ",
"Y F N b 7 b 7 b F ] Q ] Q E U F Q Q Q F E Y n 2 t 7 4 3 4 4 d.Q.9.7.= 3 4 7 7 6 Q &.+.$.$.] ] >.+.+.] ' &.;.$.;.| ] +.' N m m F ",
"V V n m n n n b m ] _ Q ~ Q Q Q ] Q Q F F V I 2 7 t 6 4 > 4 u E.9.q 1 1 2 6 6 y F +.+.] | | ] $.+.X.] ] +.>.;.$.' ] ' F F F F F ",
"B V V F I B V b 7 / ! E I V Y _ Q Y E V m m 6 1 6 7 7 4 3 4 9 V.e.> = 3 3 4 4 7 6 5 m E +.+.X.$.+.] Q +.+.,.;.] N K F F E F F V ",
"V V U E I I n 6 6 I E V m m V V N F F V m t 1 = 4 7 7 4 > > 4 9.z $ 4 6 5 4 e N 7 5 5 3 6 | X.;.$.] / | +.X.X.' y m F Q Q Q E F ",
"G V V E V V N 5 6 7 ! E V m V B F N F F V 7 1 # 6 6 t 6 4 3 5 q q > B 7 4 5 7 B V m 6 6 2 5 / >.;.] Q Q Q ] +.] F m m E Q Q F F ",
"U E E G V V V t 5 5 5 ! E V V V F U U Q E m 5 @ = 5 4 6 4 > 3 9 < 7 7 t V t b G / | Y 7 2 2 5 ;.<.;.| / Q ' +.W m m m F Q Q Q Q ",
"E _ _ E F U U V 7 6 6 7 7 6 6 V Q ] Q Q F m V b = > 5 > 2 2 = 7 m a t V E G V G ] / V m b 1 3 E >.;.+.] ] ] ] U U F U F F Q ] Q ",
"E U U V F F U N 7 6 7 7 7 7 6 7 Q ] ' F F E Y n N N m 3 @ $ = a B N m m N V B B Y Y n 7 m 5 1 6 +.$.+.] Q Q F y Q E _ Q Q ] ] Q ",
"G V N m m m t 6 5 4 7 t 7 6 6 6 t ' Q F F ]  .B B V 7 3 & . # N t B m V V V m B n Y n n n m 2 5 Y Q X.] _ +.N t N E ~ Q F U U U ",
"N m t N t t 7 4 5 6 7 t 7 5 5 6 F N W ' { +.[ [ [ [ b 5 7 $ O m N V 7 B E E G V Y E E E n I 2 2 6 m Y Q Q t t t m U U F F V U N "
};
